<svg width="365" height="211" viewBox="0 0 365 211" fill="none" xmlns="http://www.w3.org/2000/svg">
<path d="M20.52 59.64C17.2667 59.64 14.44 59.3733 12.04 58.84C9.64 58.3067 7.53333 57.4533 5.72 56.28C4.92 55.8 4.30667 55.16 3.88 54.36C3.45333 53.56 3.24 52.6533 3.24 51.64C3.24 50.4133 3.58667 49.4 4.28 48.6C4.97333 47.7467 5.82667 47.32 6.84 47.32C7.53333 47.32 8.22667 47.4533 8.92 47.72C9.61333 47.9333 10.3333 48.2 11.08 48.52C12.5733 49.2133 14.04 49.7733 15.48 50.2C16.92 50.5733 18.7067 50.76 20.84 50.76C22.7067 50.76 24.1467 50.4667 25.16 49.88C26.2267 49.2933 26.76 48.4933 26.76 47.48C26.76 46.7333 26.52 46.1467 26.04 45.72C25.6133 45.24 24.7867 44.8133 23.56 44.44C22.3333 44.0667 20.3867 43.6133 17.72 43.08C12.9733 42.1733 9.56 40.8133 7.48 39C5.4 37.1867 4.36 34.6533 4.36 31.4C4.36 29 5.08 26.84 6.52 24.92C8.01333 23 10.04 21.5067 12.6 20.44C15.16 19.32 18.04 18.76 21.24 18.76C23.5333 18.76 25.7733 19.0533 27.96 19.64C30.1467 20.2267 32.0933 21.0533 33.8 22.12C35.4533 23.1333 36.28 24.6267 36.28 26.6C36.28 27.88 35.9333 28.9467 35.24 29.8C34.5467 30.6533 33.6933 31.08 32.68 31.08C31.4533 31.08 29.9867 30.6 28.28 29.64C26.9467 28.9467 25.72 28.44 24.6 28.12C23.5333 27.7467 22.2533 27.56 20.76 27.56C19.1067 27.56 17.8 27.88 16.84 28.52C15.88 29.1067 15.4 29.9333 15.4 31C15.4 32.12 15.96 32.9733 17.08 33.56C18.2 34.1467 20.36 34.7333 23.56 35.32C27.1333 36.0133 29.9333 36.8667 31.96 37.88C33.9867 38.84 35.4533 40.0667 36.36 41.56C37.2667 43.0533 37.72 44.9467 37.72 47.24C37.72 51.0267 36.1467 54.04 33 56.28C29.9067 58.52 25.7467 59.64 20.52 59.64ZM49.5044 59.48C47.7444 59.48 46.2777 59 45.1044 58.04C43.9844 57.08 43.4244 55.6667 43.4244 53.8V24.6C43.4244 22.7333 44.011 21.32 45.1844 20.36C46.3577 19.4 47.7977 18.92 49.5044 18.92C51.211 18.92 52.6244 19.4 53.7444 20.36C54.9177 21.32 55.5044 22.7333 55.5044 24.6V53.8C55.5044 55.6667 54.9177 57.08 53.7444 58.04C52.6244 59 51.211 59.48 49.5044 59.48ZM49.5044 12.52C47.371 12.52 45.691 11.9867 44.4644 10.92C43.2377 9.8 42.6244 8.30666 42.6244 6.44C42.6244 4.57333 43.2377 3.10666 44.4644 2.04C45.691 0.97333 47.371 0.439996 49.5044 0.439996C51.5844 0.439996 53.2377 0.999997 54.4644 2.12C55.7444 3.18666 56.3844 4.62666 56.3844 6.44C56.3844 8.30666 55.771 9.8 54.5444 10.92C53.3177 11.9867 51.6377 12.52 49.5044 12.52ZM111.953 18.76C116.219 18.76 119.499 20.0667 121.792 22.68C124.086 25.24 125.233 29.4533 125.233 35.32V53.8C125.233 55.6667 124.673 57.08 123.553 58.04C122.433 59 120.993 59.48 119.232 59.48C117.526 59.48 116.086 59 114.913 58.04C113.739 57.08 113.153 55.6667 113.153 53.8V35.16C113.153 32.6 112.699 30.8133 111.792 29.8C110.939 28.7333 109.606 28.2 107.792 28.2C105.552 28.2 103.766 28.9733 102.433 30.52C101.099 32.0667 100.433 34.2267 100.433 37V53.8C100.433 55.6667 99.8725 57.08 98.7525 58.04C97.6325 59 96.1925 59.48 94.4325 59.48C92.7258 59.48 91.2858 59 90.1125 58.04C88.9392 57.08 88.3525 55.6667 88.3525 53.8V35.16C88.3525 32.6 87.8992 30.8133 86.9925 29.8C86.1392 28.7333 84.8058 28.2 82.9925 28.2C80.7525 28.2 78.9658 28.9733 77.6325 30.52C76.2992 32.0667 75.6325 34.2267 75.6325 37V53.8C75.6325 55.6667 75.0458 57.08 73.8725 58.04C72.7525 59 71.3392 59.48 69.6325 59.48C67.9258 59.48 66.4858 59 65.3125 58.04C64.1392 57.08 63.5525 55.6667 63.5525 53.8V24.44C63.5525 22.68 64.1392 21.32 65.3125 20.36C66.5392 19.4 68.0058 18.92 69.7125 18.92C71.3125 18.92 72.6458 19.4 73.7125 20.36C74.7792 21.2667 75.3125 22.5467 75.3125 24.2V25C76.5925 22.9733 78.2458 21.4267 80.2725 20.36C82.3525 19.2933 84.6992 18.76 87.3125 18.76C90.1392 18.76 92.5125 19.3467 94.4325 20.52C96.4058 21.64 97.9258 23.48 98.9925 26.04C100.219 23.8 101.953 22.04 104.193 20.76C106.486 19.4267 109.073 18.76 111.953 18.76ZM157.454 18.76C160.814 18.76 163.8 19.64 166.414 21.4C169.08 23.1067 171.134 25.5333 172.574 28.68C174.067 31.7733 174.814 35.3467 174.814 39.4C174.814 43.4533 174.067 47.0267 172.574 50.12C171.134 53.16 169.107 55.5067 166.494 57.16C163.88 58.8133 160.867 59.64 157.454 59.64C154.787 59.64 152.36 59.1067 150.174 58.04C148.04 56.92 146.387 55.3733 145.214 53.4V68.52C145.214 70.12 144.68 71.4 143.614 72.36C142.547 73.32 141.134 73.8 139.374 73.8C137.507 73.8 135.987 73.2933 134.814 72.28C133.694 71.2667 133.134 69.9333 133.134 68.28V24.6C133.134 22.8933 133.667 21.5333 134.734 20.52C135.854 19.4533 137.32 18.92 139.134 18.92C140.947 18.92 142.387 19.4533 143.454 20.52C144.52 21.5333 145.054 22.8933 145.054 24.6V25.24C146.227 23.2133 147.907 21.64 150.094 20.52C152.28 19.3467 154.734 18.76 157.454 18.76ZM153.934 50.44C156.76 50.44 158.947 49.5067 160.494 47.64C162.04 45.72 162.814 42.9733 162.814 39.4C162.814 35.7733 162.04 32.9733 160.494 31C158.947 28.9733 156.76 27.96 153.934 27.96C151.107 27.96 148.92 28.9467 147.374 30.92C145.827 32.84 145.054 35.6133 145.054 39.24C145.054 42.8133 145.827 45.5867 147.374 47.56C148.92 49.48 151.107 50.44 153.934 50.44ZM187.076 59.48C185.316 59.48 183.85 59 182.676 58.04C181.556 57.08 180.996 55.6667 180.996 53.8V7.88C180.996 6.01333 181.556 4.6 182.676 3.64C183.85 2.68 185.316 2.2 187.076 2.2C188.783 2.2 190.196 2.68 191.316 3.64C192.49 4.6 193.076 6.01333 193.076 7.88V53.8C193.076 55.6667 192.49 57.08 191.316 58.04C190.196 59 188.783 59.48 187.076 59.48ZM207.204 59.48C205.444 59.48 203.978 59 202.804 58.04C201.684 57.08 201.124 55.6667 201.124 53.8V24.6C201.124 22.7333 201.711 21.32 202.884 20.36C204.058 19.4 205.498 18.92 207.204 18.92C208.911 18.92 210.324 19.4 211.444 20.36C212.618 21.32 213.204 22.7333 213.204 24.6V53.8C213.204 55.6667 212.618 57.08 211.444 58.04C210.324 59 208.911 59.48 207.204 59.48ZM207.204 12.52C205.071 12.52 203.391 11.9867 202.164 10.92C200.938 9.8 200.324 8.30666 200.324 6.44C200.324 4.57333 200.938 3.10666 202.164 2.04C203.391 0.97333 205.071 0.439996 207.204 0.439996C209.284 0.439996 210.938 0.999997 212.164 2.12C213.444 3.18666 214.084 4.62666 214.084 6.44C214.084 8.30666 213.471 9.8 212.244 10.92C211.018 11.9867 209.338 12.52 207.204 12.52ZM226.373 42.28C222.586 42.28 220.693 40.7067 220.693 37.56C220.693 34.4133 222.586 32.84 226.373 32.84H242.053C245.839 32.84 247.733 34.4133 247.733 37.56C247.733 40.7067 245.839 42.28 242.053 42.28H226.373Z" fill="#3031F2"/>
<path d="M102.531 91.4C100.344 91.56 98.7706 92.2267 97.8106 93.4C96.8506 94.5733 96.3706 96.2267 96.3706 98.36V99.72H101.971C105.597 99.72 107.411 101.24 107.411 104.28C107.411 107.267 105.597 108.76 101.971 108.76H96.3706V133.72C96.3706 135.587 95.784 137 94.6106 137.96C93.4906 138.92 92.0773 139.4 90.3706 139.4C88.6106 139.4 87.144 138.92 85.9706 137.96C84.8506 137 84.2906 135.587 84.2906 133.72V108.76H81.0906C77.5173 108.76 75.7306 107.267 75.7306 104.28C75.7306 101.24 77.5173 99.72 81.0906 99.72H84.2906C84.2906 94.6 85.704 90.5733 88.5306 87.64C91.3573 84.7067 95.2506 83.0533 100.211 82.68L102.291 82.52L103.731 82.44C107.411 82.44 109.251 83.8533 109.251 86.68C109.251 89.4533 107.704 90.9733 104.611 91.24L102.531 91.4ZM121.592 139.48C119.832 139.48 118.365 139 117.192 138.04C116.072 137.08 115.512 135.667 115.512 133.8V104.6C115.512 102.733 116.099 101.32 117.272 100.36C118.445 99.4 119.885 98.92 121.592 98.92C123.299 98.92 124.712 99.4 125.832 100.36C127.005 101.32 127.592 102.733 127.592 104.6V133.8C127.592 135.667 127.005 137.08 125.832 138.04C124.712 139 123.299 139.48 121.592 139.48ZM121.592 92.52C119.459 92.52 117.779 91.9867 116.552 90.92C115.325 89.8 114.712 88.3067 114.712 86.44C114.712 84.5733 115.325 83.1067 116.552 82.04C117.779 80.9733 119.459 80.44 121.592 80.44C123.672 80.44 125.325 81 126.552 82.12C127.832 83.1867 128.472 84.6267 128.472 86.44C128.472 88.3067 127.859 89.8 126.632 90.92C125.405 91.9867 123.725 92.52 121.592 92.52ZM153.56 139.64C149.507 139.64 145.96 138.813 142.92 137.16C139.88 135.507 137.533 133.16 135.88 130.12C134.28 127.08 133.48 123.507 133.48 119.4C133.48 115.293 134.333 111.693 136.04 108.6C137.8 105.453 140.253 103.027 143.4 101.32C146.547 99.6133 150.173 98.76 154.28 98.76C156.413 98.76 158.547 99.0533 160.68 99.64C162.867 100.227 164.813 101.053 166.52 102.12C168.173 103.133 169 104.627 169 106.6C169 107.987 168.68 109.133 168.04 110.04C167.4 110.893 166.547 111.32 165.48 111.32C164.787 111.32 164.12 111.213 163.48 111C162.893 110.733 162.093 110.36 161.08 109.88C159.96 109.293 158.947 108.84 158.04 108.52C157.187 108.2 156.2 108.04 155.08 108.04C152.093 108.04 149.8 109 148.2 110.92C146.653 112.787 145.88 115.533 145.88 119.16C145.88 122.787 146.653 125.56 148.2 127.48C149.8 129.4 152.093 130.36 155.08 130.36C156.2 130.36 157.187 130.227 158.04 129.96C158.893 129.64 159.933 129.16 161.16 128.52C162.173 128.04 162.973 127.693 163.56 127.48C164.147 127.213 164.787 127.08 165.48 127.08C166.493 127.08 167.32 127.533 167.96 128.44C168.653 129.347 169 130.493 169 131.88C169 133.853 168.173 135.32 166.52 136.28C164.813 137.347 162.84 138.173 160.6 138.76C158.36 139.347 156.013 139.64 153.56 139.64ZM191.171 98.76C196.931 98.76 201.198 100.173 203.971 103C206.745 105.773 208.131 110.04 208.131 115.8V133.88C208.131 135.64 207.625 137.027 206.611 138.04C205.598 139 204.185 139.48 202.371 139.48C200.665 139.48 199.278 138.973 198.211 137.96C197.198 136.893 196.691 135.533 196.691 133.88V133.32C195.891 135.293 194.558 136.84 192.691 137.96C190.825 139.08 188.638 139.64 186.131 139.64C183.465 139.64 181.038 139.107 178.851 138.04C176.718 136.973 175.011 135.48 173.731 133.56C172.505 131.64 171.891 129.507 171.891 127.16C171.891 124.28 172.611 122.013 174.051 120.36C175.545 118.707 177.918 117.507 181.171 116.76C184.425 116.013 188.878 115.64 194.531 115.64H196.611V114.2C196.611 111.96 196.105 110.333 195.091 109.32C194.131 108.307 192.505 107.8 190.211 107.8C187.918 107.8 184.611 108.6 180.291 110.2C179.065 110.787 178.025 111.08 177.171 111.08C175.998 111.08 175.065 110.68 174.371 109.88C173.678 109.027 173.331 107.933 173.331 106.6C173.331 105.533 173.571 104.653 174.051 103.96C174.531 103.267 175.305 102.627 176.371 102.04C178.238 101.027 180.505 100.227 183.171 99.64C185.891 99.0533 188.558 98.76 191.171 98.76ZM188.771 131.32C191.118 131.32 193.011 130.547 194.451 129C195.891 127.4 196.611 125.347 196.611 122.84V121.48H195.251C190.931 121.48 187.891 121.827 186.131 122.52C184.425 123.213 183.571 124.467 183.571 126.28C183.571 127.773 184.051 129 185.011 129.96C186.025 130.867 187.278 131.32 188.771 131.32ZM264.123 98.76C268.39 98.76 271.67 100.067 273.963 102.68C276.256 105.24 277.403 109.453 277.403 115.32V133.8C277.403 135.667 276.843 137.08 275.723 138.04C274.603 139 273.163 139.48 271.403 139.48C269.696 139.48 268.256 139 267.083 138.04C265.91 137.08 265.323 135.667 265.323 133.8V115.16C265.323 112.6 264.87 110.813 263.963 109.8C263.11 108.733 261.776 108.2 259.963 108.2C257.723 108.2 255.936 108.973 254.603 110.52C253.27 112.067 252.603 114.227 252.603 117V133.8C252.603 135.667 252.043 137.08 250.923 138.04C249.803 139 248.363 139.48 246.603 139.48C244.896 139.48 243.456 139 242.283 138.04C241.11 137.08 240.523 135.667 240.523 133.8V115.16C240.523 112.6 240.07 110.813 239.163 109.8C238.31 108.733 236.976 108.2 235.163 108.2C232.923 108.2 231.136 108.973 229.803 110.52C228.47 112.067 227.803 114.227 227.803 117V133.8C227.803 135.667 227.216 137.08 226.043 138.04C224.923 139 223.51 139.48 221.803 139.48C220.096 139.48 218.656 139 217.483 138.04C216.31 137.08 215.723 135.667 215.723 133.8V104.44C215.723 102.68 216.31 101.32 217.483 100.36C218.71 99.4 220.176 98.92 221.883 98.92C223.483 98.92 224.816 99.4 225.883 100.36C226.95 101.267 227.483 102.547 227.483 104.2V105C228.763 102.973 230.416 101.427 232.443 100.36C234.523 99.2933 236.87 98.76 239.483 98.76C242.31 98.76 244.683 99.3467 246.603 100.52C248.576 101.64 250.096 103.48 251.163 106.04C252.39 103.8 254.123 102.04 256.363 100.76C258.656 99.4267 261.243 98.76 264.123 98.76ZM303.944 139.64C299.784 139.64 296.131 138.813 292.984 137.16C289.838 135.453 287.411 133.08 285.704 130.04C283.998 126.947 283.144 123.32 283.144 119.16C283.144 115 283.998 111.4 285.704 108.36C287.411 105.267 289.838 102.893 292.984 101.24C296.131 99.5867 299.784 98.76 303.944 98.76C308.104 98.76 311.758 99.5867 314.904 101.24C318.051 102.893 320.478 105.267 322.184 108.36C323.891 111.4 324.744 115 324.744 119.16C324.744 123.32 323.891 126.947 322.184 130.04C320.478 133.08 318.051 135.453 314.904 137.16C311.758 138.813 308.104 139.64 303.944 139.64ZM303.944 130.44C309.811 130.44 312.744 126.68 312.744 119.16C312.744 115.373 311.971 112.547 310.424 110.68C308.931 108.813 306.771 107.88 303.944 107.88C298.078 107.88 295.144 111.64 295.144 119.16C295.144 126.68 298.078 130.44 303.944 130.44ZM345.536 139.64C342.282 139.64 339.456 139.373 337.056 138.84C334.656 138.307 332.549 137.453 330.736 136.28C329.936 135.8 329.322 135.16 328.896 134.36C328.469 133.56 328.256 132.653 328.256 131.64C328.256 130.413 328.602 129.4 329.296 128.6C329.989 127.747 330.842 127.32 331.856 127.32C332.549 127.32 333.242 127.453 333.936 127.72C334.629 127.933 335.349 128.2 336.096 128.52C337.589 129.213 339.056 129.773 340.496 130.2C341.936 130.573 343.722 130.76 345.856 130.76C347.722 130.76 349.162 130.467 350.176 129.88C351.242 129.293 351.776 128.493 351.776 127.48C351.776 126.733 351.536 126.147 351.056 125.72C350.629 125.24 349.802 124.813 348.576 124.44C347.349 124.067 345.402 123.613 342.736 123.08C337.989 122.173 334.576 120.813 332.496 119C330.416 117.187 329.376 114.653 329.376 111.4C329.376 109 330.096 106.84 331.536 104.92C333.029 103 335.056 101.507 337.616 100.44C340.176 99.32 343.056 98.76 346.256 98.76C348.549 98.76 350.789 99.0533 352.976 99.64C355.162 100.227 357.109 101.053 358.816 102.12C360.469 103.133 361.296 104.627 361.296 106.6C361.296 107.88 360.949 108.947 360.256 109.8C359.562 110.653 358.709 111.08 357.696 111.08C356.469 111.08 355.002 110.6 353.296 109.64C351.962 108.947 350.736 108.44 349.616 108.12C348.549 107.747 347.269 107.56 345.776 107.56C344.122 107.56 342.816 107.88 341.856 108.52C340.896 109.107 340.416 109.933 340.416 111C340.416 112.12 340.976 112.973 342.096 113.56C343.216 114.147 345.376 114.733 348.576 115.32C352.149 116.013 354.949 116.867 356.976 117.88C359.002 118.84 360.469 120.067 361.376 121.56C362.282 123.053 362.736 124.947 362.736 127.24C362.736 131.027 361.162 134.04 358.016 136.28C354.922 138.52 350.762 139.64 345.536 139.64Z" fill="#3031F2"/>
<path d="M82.8309 179.216C81.4667 179.216 80.2665 178.921 79.2303 178.331C78.2071 177.728 77.407 176.888 76.8298 175.813C76.2658 174.737 75.9838 173.484 75.9838 172.054C75.9838 170.966 76.1412 169.989 76.456 169.123C76.7839 168.244 77.2496 167.496 77.853 166.88C78.4564 166.25 79.1778 165.765 80.0173 165.424C80.8699 165.083 81.8078 164.912 82.8309 164.912C84.2213 164.912 85.4281 165.207 86.4512 165.798C87.4744 166.388 88.268 167.221 88.832 168.296C89.4092 169.359 89.6977 170.605 89.6977 172.035C89.6977 173.124 89.5338 174.107 89.2058 174.986C88.8779 175.865 88.4123 176.619 87.8089 177.249C87.2055 177.878 86.484 178.364 85.6445 178.705C84.805 179.046 83.8672 179.216 82.8309 179.216ZM82.8309 176.619C83.6048 176.619 84.2607 176.442 84.7985 176.088C85.3494 175.721 85.7692 175.196 86.0577 174.514C86.3594 173.819 86.5103 172.999 86.5103 172.054C86.5103 170.612 86.1889 169.497 85.5462 168.71C84.9034 167.909 83.9983 167.509 82.8309 167.509C82.0701 167.509 81.4143 167.686 80.8634 168.041C80.3124 168.395 79.8927 168.913 79.6041 169.595C79.3155 170.277 79.1712 171.097 79.1712 172.054C79.1712 173.484 79.4926 174.606 80.1354 175.419C80.7781 176.219 81.6766 176.619 82.8309 176.619ZM100.602 179.216C100.025 179.216 99.4279 179.164 98.8114 179.059C98.208 178.954 97.6571 178.777 97.1587 178.528C96.8963 178.397 96.7061 178.233 96.5881 178.036C96.4831 177.826 96.4372 177.616 96.4503 177.406C96.4634 177.196 96.529 177.006 96.6471 176.836C96.7783 176.665 96.9422 176.554 97.139 176.501C97.3489 176.436 97.5784 176.455 97.8276 176.56C98.3654 176.783 98.8573 176.941 99.3033 177.032C99.7493 177.124 100.189 177.17 100.622 177.17C101.186 177.17 101.592 177.085 101.841 176.914C102.104 176.731 102.235 176.495 102.235 176.206C102.235 175.944 102.15 175.747 101.979 175.616C101.809 175.485 101.559 175.393 101.232 175.34L99.1656 174.966C98.3523 174.822 97.7227 174.527 97.2767 174.081C96.8438 173.622 96.6274 173.038 96.6274 172.33C96.6274 171.674 96.8111 171.11 97.1783 170.638C97.5456 170.153 98.0506 169.785 98.6934 169.536C99.3492 169.274 100.09 169.142 100.917 169.142C101.507 169.142 102.051 169.195 102.55 169.3C103.048 169.405 103.527 169.575 103.986 169.811C104.222 169.93 104.386 170.087 104.478 170.284C104.583 170.48 104.616 170.684 104.576 170.894C104.55 171.103 104.471 171.294 104.34 171.464C104.209 171.635 104.039 171.746 103.829 171.799C103.632 171.851 103.402 171.825 103.14 171.72C102.72 171.523 102.333 171.386 101.979 171.307C101.625 171.215 101.284 171.169 100.956 171.169C100.366 171.169 99.9395 171.267 99.6771 171.464C99.4148 171.648 99.2836 171.884 99.2836 172.173C99.2836 172.396 99.3558 172.586 99.5001 172.743C99.6575 172.887 99.8936 172.986 100.208 173.038L102.274 173.412C103.127 173.556 103.776 173.845 104.222 174.278C104.668 174.698 104.891 175.275 104.891 176.009C104.891 177.006 104.498 177.793 103.711 178.37C102.937 178.934 101.9 179.216 100.602 179.216ZM111.408 179.216C110.266 179.216 109.283 179.013 108.456 178.606C107.643 178.187 107.013 177.603 106.567 176.855C106.134 176.095 105.918 175.203 105.918 174.179C105.918 173.183 106.128 172.31 106.548 171.563C106.967 170.802 107.551 170.212 108.299 169.792C109.06 169.359 109.919 169.142 110.876 169.142C111.571 169.142 112.201 169.261 112.765 169.497C113.329 169.72 113.815 170.048 114.221 170.48C114.628 170.9 114.936 171.418 115.146 172.035C115.356 172.638 115.461 173.314 115.461 174.061C115.461 174.311 115.382 174.501 115.225 174.632C115.067 174.75 114.838 174.809 114.536 174.809H108.358V173.274H113.316L113.001 173.55C113.001 173.012 112.923 172.566 112.765 172.212C112.608 171.845 112.378 171.569 112.077 171.386C111.788 171.202 111.427 171.11 110.994 171.11C110.509 171.11 110.096 171.222 109.755 171.445C109.414 171.668 109.151 171.989 108.968 172.409C108.784 172.828 108.692 173.333 108.692 173.924V174.081C108.692 175.078 108.922 175.813 109.381 176.285C109.853 176.757 110.548 176.993 111.467 176.993C111.781 176.993 112.142 176.954 112.549 176.875C112.955 176.796 113.336 176.672 113.69 176.501C113.992 176.357 114.261 176.311 114.497 176.363C114.733 176.403 114.916 176.508 115.048 176.678C115.179 176.849 115.251 177.046 115.264 177.269C115.29 177.492 115.244 177.715 115.126 177.938C115.008 178.147 114.811 178.324 114.536 178.469C114.09 178.718 113.585 178.902 113.021 179.02C112.47 179.151 111.932 179.216 111.408 179.216ZM120.553 179.216C119.74 179.216 119.065 179.066 118.527 178.764C117.989 178.462 117.589 178.01 117.327 177.406C117.077 176.79 116.953 176.029 116.953 175.124V170.677C116.953 170.179 117.077 169.805 117.327 169.556C117.589 169.306 117.956 169.182 118.428 169.182C118.901 169.182 119.268 169.306 119.53 169.556C119.793 169.805 119.924 170.179 119.924 170.677V175.203C119.924 175.78 120.042 176.213 120.278 176.501C120.514 176.777 120.888 176.914 121.399 176.914C121.963 176.914 122.423 176.718 122.777 176.324C123.144 175.917 123.328 175.386 123.328 174.73V170.677C123.328 170.179 123.452 169.805 123.701 169.556C123.964 169.306 124.331 169.182 124.803 169.182C125.289 169.182 125.656 169.306 125.905 169.556C126.167 169.805 126.299 170.179 126.299 170.677V177.662C126.299 178.672 125.82 179.177 124.862 179.177C124.39 179.177 124.029 179.046 123.78 178.784C123.531 178.521 123.406 178.147 123.406 177.662V176.344L123.701 177.111C123.413 177.78 123 178.298 122.462 178.666C121.924 179.033 121.288 179.216 120.553 179.216ZM132.834 182.699C132.48 182.712 132.198 182.653 131.988 182.522C131.778 182.391 131.634 182.22 131.555 182.01C131.476 181.814 131.456 181.61 131.496 181.4C131.522 181.191 131.607 181.007 131.752 180.85C131.896 180.692 132.093 180.6 132.342 180.574C132.853 180.535 133.221 180.39 133.444 180.141C133.68 179.905 133.798 179.538 133.798 179.039V170.677C133.798 170.192 133.929 169.825 134.191 169.575C134.454 169.313 134.821 169.182 135.293 169.182C135.765 169.182 136.126 169.313 136.375 169.575C136.638 169.825 136.769 170.192 136.769 170.677V178.764C136.769 179.63 136.625 180.345 136.336 180.909C136.061 181.473 135.634 181.899 135.057 182.187C134.48 182.489 133.739 182.66 132.834 182.699ZM135.274 167.568C134.736 167.568 134.316 167.444 134.014 167.195C133.726 166.932 133.581 166.565 133.581 166.093C133.581 165.607 133.726 165.24 134.014 164.991C134.316 164.729 134.736 164.597 135.274 164.597C135.824 164.597 136.244 164.729 136.533 164.991C136.821 165.24 136.966 165.607 136.966 166.093C136.966 166.565 136.821 166.932 136.533 167.195C136.244 167.444 135.824 167.568 135.274 167.568ZM143.9 179.216C142.759 179.216 141.775 179.013 140.949 178.606C140.135 178.187 139.506 177.603 139.06 176.855C138.627 176.095 138.411 175.203 138.411 174.179C138.411 173.183 138.62 172.31 139.04 171.563C139.46 170.802 140.044 170.212 140.791 169.792C141.552 169.359 142.411 169.142 143.369 169.142C144.064 169.142 144.694 169.261 145.258 169.497C145.822 169.72 146.307 170.048 146.714 170.48C147.12 170.9 147.429 171.418 147.638 172.035C147.848 172.638 147.953 173.314 147.953 174.061C147.953 174.311 147.875 174.501 147.717 174.632C147.56 174.75 147.33 174.809 147.029 174.809H140.85V173.274H145.809L145.494 173.55C145.494 173.012 145.415 172.566 145.258 172.212C145.1 171.845 144.871 171.569 144.569 171.386C144.28 171.202 143.92 171.11 143.487 171.11C143.002 171.11 142.588 171.222 142.247 171.445C141.906 171.668 141.644 171.989 141.46 172.409C141.277 172.828 141.185 173.333 141.185 173.924V174.081C141.185 175.078 141.414 175.813 141.873 176.285C142.346 176.757 143.041 176.993 143.959 176.993C144.274 176.993 144.635 176.954 145.041 176.875C145.448 176.796 145.828 176.672 146.182 176.501C146.484 176.357 146.753 176.311 146.989 176.363C147.225 176.403 147.409 176.508 147.54 176.678C147.671 176.849 147.743 177.046 147.757 177.269C147.783 177.492 147.737 177.715 147.619 177.938C147.501 178.147 147.304 178.324 147.029 178.469C146.583 178.718 146.078 178.902 145.513 179.02C144.963 179.151 144.425 179.216 143.9 179.216ZM150.98 179.157C150.495 179.157 150.121 179.02 149.858 178.744C149.609 178.456 149.485 178.056 149.485 177.544V170.815C149.485 170.29 149.609 169.89 149.858 169.615C150.121 169.326 150.495 169.182 150.98 169.182C151.452 169.182 151.813 169.326 152.062 169.615C152.324 169.89 152.456 170.29 152.456 170.815V177.544C152.456 178.056 152.331 178.456 152.082 178.744C151.833 179.02 151.465 179.157 150.98 179.157ZM150.98 167.568C150.429 167.568 150.003 167.444 149.701 167.195C149.412 166.932 149.268 166.565 149.268 166.093C149.268 165.607 149.412 165.24 149.701 164.991C150.003 164.729 150.429 164.597 150.98 164.597C151.531 164.597 151.951 164.729 152.239 164.991C152.528 165.24 152.672 165.607 152.672 166.093C152.672 166.565 152.528 166.932 152.239 167.195C151.951 167.444 151.531 167.568 150.98 167.568ZM159.294 179.216C158.389 179.216 157.629 179.066 157.012 178.764C156.409 178.462 155.956 178.023 155.654 177.446C155.366 176.868 155.222 176.14 155.222 175.262V171.563H154.395C154.028 171.563 153.739 171.464 153.529 171.267C153.333 171.071 153.234 170.802 153.234 170.461C153.234 170.093 153.333 169.818 153.529 169.634C153.739 169.438 154.028 169.339 154.395 169.339H155.222V167.844C155.222 167.345 155.353 166.972 155.615 166.722C155.877 166.46 156.245 166.329 156.717 166.329C157.202 166.329 157.57 166.46 157.819 166.722C158.068 166.972 158.193 167.345 158.193 167.844V169.339H160.062C160.429 169.339 160.711 169.438 160.908 169.634C161.105 169.818 161.203 170.093 161.203 170.461C161.203 170.802 161.105 171.071 160.908 171.267C160.711 171.464 160.429 171.563 160.062 171.563H158.193V175.144C158.193 175.694 158.317 176.108 158.566 176.383C158.829 176.659 159.242 176.796 159.806 176.796C160.003 176.796 160.186 176.777 160.357 176.737C160.527 176.698 160.685 176.672 160.829 176.659C161.013 176.645 161.164 176.705 161.282 176.836C161.4 176.954 161.459 177.223 161.459 177.642C161.459 177.957 161.406 178.233 161.301 178.469C161.196 178.705 161.013 178.875 160.75 178.98C160.58 179.046 160.344 179.098 160.042 179.138C159.754 179.19 159.504 179.216 159.294 179.216ZM166.858 179.216C165.822 179.216 164.917 179.013 164.143 178.606C163.382 178.2 162.792 177.616 162.372 176.855C161.952 176.095 161.742 175.196 161.742 174.16C161.742 173.386 161.86 172.691 162.097 172.074C162.333 171.458 162.674 170.933 163.12 170.5C163.579 170.054 164.123 169.72 164.753 169.497C165.382 169.261 166.084 169.142 166.858 169.142C167.894 169.142 168.793 169.346 169.554 169.752C170.328 170.159 170.924 170.736 171.344 171.484C171.777 172.232 171.993 173.124 171.993 174.16C171.993 174.947 171.869 175.649 171.62 176.265C171.383 176.882 171.042 177.413 170.596 177.859C170.15 178.305 169.606 178.646 168.963 178.882C168.334 179.105 167.632 179.216 166.858 179.216ZM166.858 176.993C167.291 176.993 167.665 176.888 167.98 176.678C168.294 176.468 168.544 176.16 168.727 175.754C168.911 175.334 169.003 174.803 169.003 174.16C169.003 173.202 168.806 172.5 168.412 172.054C168.019 171.595 167.501 171.366 166.858 171.366C166.438 171.366 166.064 171.464 165.737 171.661C165.422 171.858 165.173 172.166 164.989 172.586C164.818 172.992 164.733 173.517 164.733 174.16C164.733 175.117 164.93 175.832 165.323 176.304C165.717 176.764 166.228 176.993 166.858 176.993ZM182.661 179.216C181.821 179.216 181.08 179.013 180.437 178.606C179.808 178.2 179.316 177.616 178.962 176.855C178.608 176.095 178.431 175.196 178.431 174.16C178.431 173.124 178.608 172.232 178.962 171.484C179.316 170.736 179.808 170.159 180.437 169.752C181.08 169.346 181.821 169.142 182.661 169.142C183.422 169.142 184.091 169.326 184.668 169.693C185.258 170.061 185.658 170.539 185.868 171.13H185.652V166.467C185.652 165.968 185.776 165.594 186.025 165.345C186.275 165.083 186.642 164.952 187.127 164.952C187.599 164.952 187.967 165.083 188.229 165.345C188.491 165.594 188.623 165.968 188.623 166.467V177.662C188.623 178.147 188.491 178.521 188.229 178.784C187.98 179.046 187.619 179.177 187.147 179.177C186.675 179.177 186.307 179.046 186.045 178.784C185.796 178.521 185.671 178.147 185.671 177.662V176.324L185.888 177.091C185.704 177.734 185.31 178.252 184.707 178.646C184.117 179.026 183.435 179.216 182.661 179.216ZM183.546 176.993C183.979 176.993 184.353 176.888 184.668 176.678C184.983 176.468 185.232 176.16 185.415 175.754C185.599 175.334 185.691 174.803 185.691 174.16C185.691 173.202 185.494 172.5 185.101 172.054C184.707 171.595 184.189 171.366 183.546 171.366C183.126 171.366 182.753 171.464 182.425 171.661C182.11 171.858 181.861 172.166 181.677 172.586C181.507 172.992 181.421 173.517 181.421 174.16C181.421 175.117 181.618 175.832 182.012 176.304C182.405 176.764 182.917 176.993 183.546 176.993ZM195.732 179.216C194.591 179.216 193.607 179.013 192.781 178.606C191.968 178.187 191.338 177.603 190.892 176.855C190.459 176.095 190.243 175.203 190.243 174.179C190.243 173.183 190.453 172.31 190.873 171.563C191.292 170.802 191.876 170.212 192.624 169.792C193.384 169.359 194.244 169.142 195.201 169.142C195.896 169.142 196.526 169.261 197.09 169.497C197.654 169.72 198.139 170.048 198.546 170.48C198.953 170.9 199.261 171.418 199.471 172.035C199.681 172.638 199.786 173.314 199.786 174.061C199.786 174.311 199.707 174.501 199.549 174.632C199.392 174.75 199.163 174.809 198.861 174.809H192.683V173.274H197.641L197.326 173.55C197.326 173.012 197.247 172.566 197.09 172.212C196.933 171.845 196.703 171.569 196.401 171.386C196.113 171.202 195.752 171.11 195.319 171.11C194.834 171.11 194.421 171.222 194.08 171.445C193.739 171.668 193.476 171.989 193.293 172.409C193.109 172.828 193.017 173.333 193.017 173.924V174.081C193.017 175.078 193.247 175.813 193.706 176.285C194.178 176.757 194.873 176.993 195.791 176.993C196.106 176.993 196.467 176.954 196.874 176.875C197.28 176.796 197.661 176.672 198.015 176.501C198.316 176.357 198.585 176.311 198.821 176.363C199.058 176.403 199.241 176.508 199.372 176.678C199.504 176.849 199.576 177.046 199.589 177.269C199.615 177.492 199.569 177.715 199.451 177.938C199.333 178.147 199.136 178.324 198.861 178.469C198.415 178.718 197.91 178.902 197.346 179.02C196.795 179.151 196.257 179.216 195.732 179.216ZM209.882 179.216C209.173 179.216 208.537 179.079 207.973 178.803C207.409 178.528 206.97 178.154 206.655 177.682C206.34 177.21 206.183 176.678 206.183 176.088C206.183 175.38 206.366 174.822 206.734 174.416C207.101 173.996 207.698 173.701 208.524 173.53C209.35 173.347 210.446 173.255 211.81 173.255H212.853V174.789H211.83C211.161 174.789 210.616 174.829 210.196 174.907C209.79 174.973 209.495 175.091 209.311 175.262C209.141 175.432 209.055 175.668 209.055 175.97C209.055 176.337 209.18 176.639 209.429 176.875C209.691 177.111 210.065 177.229 210.551 177.229C210.931 177.229 211.266 177.144 211.554 176.973C211.856 176.79 212.092 176.547 212.262 176.245C212.433 175.931 212.518 175.576 212.518 175.183V172.92C212.518 172.343 212.387 171.936 212.125 171.7C211.862 171.451 211.416 171.326 210.787 171.326C210.433 171.326 210.046 171.372 209.626 171.464C209.219 171.543 208.767 171.681 208.268 171.877C207.98 172.009 207.724 172.041 207.501 171.976C207.278 171.897 207.107 171.766 206.989 171.582C206.871 171.386 206.812 171.176 206.812 170.953C206.812 170.717 206.878 170.494 207.009 170.284C207.14 170.061 207.357 169.897 207.658 169.792C208.275 169.543 208.852 169.372 209.39 169.28C209.941 169.188 210.446 169.142 210.905 169.142C211.915 169.142 212.741 169.293 213.384 169.595C214.04 169.884 214.532 170.336 214.86 170.953C215.188 171.556 215.352 172.337 215.352 173.294V177.662C215.352 178.147 215.233 178.521 214.997 178.784C214.761 179.046 214.42 179.177 213.974 179.177C213.528 179.177 213.181 179.046 212.931 178.784C212.695 178.521 212.577 178.147 212.577 177.662V176.934L212.715 177.052C212.636 177.498 212.466 177.885 212.203 178.213C211.954 178.528 211.633 178.777 211.239 178.961C210.846 179.131 210.393 179.216 209.882 179.216ZM220.854 179.216C219.686 179.216 218.814 178.895 218.237 178.252C217.66 177.596 217.371 176.626 217.371 175.34V166.467C217.371 165.968 217.496 165.594 217.745 165.345C218.007 165.083 218.381 164.952 218.866 164.952C219.339 164.952 219.699 165.083 219.949 165.345C220.211 165.594 220.342 165.968 220.342 166.467V175.222C220.342 175.76 220.454 176.16 220.677 176.422C220.913 176.672 221.221 176.796 221.601 176.796C221.706 176.796 221.805 176.79 221.896 176.777C221.988 176.764 222.087 176.757 222.192 176.757C222.401 176.731 222.546 176.796 222.624 176.954C222.716 177.098 222.762 177.393 222.762 177.839C222.762 178.233 222.683 178.534 222.526 178.744C222.369 178.941 222.126 179.072 221.798 179.138C221.667 179.151 221.516 179.164 221.346 179.177C221.175 179.203 221.011 179.216 220.854 179.216ZM227.288 179.216C226.474 179.216 225.799 179.066 225.261 178.764C224.723 178.462 224.323 178.01 224.061 177.406C223.812 176.79 223.687 176.029 223.687 175.124V170.677C223.687 170.179 223.812 169.805 224.061 169.556C224.323 169.306 224.691 169.182 225.163 169.182C225.635 169.182 226.002 169.306 226.265 169.556C226.527 169.805 226.658 170.179 226.658 170.677V175.203C226.658 175.78 226.776 176.213 227.012 176.501C227.248 176.777 227.622 176.914 228.134 176.914C228.698 176.914 229.157 176.718 229.511 176.324C229.878 175.917 230.062 175.386 230.062 174.73V170.677C230.062 170.179 230.187 169.805 230.436 169.556C230.698 169.306 231.065 169.182 231.538 169.182C232.023 169.182 232.39 169.306 232.64 169.556C232.902 169.805 233.033 170.179 233.033 170.677V177.662C233.033 178.672 232.554 179.177 231.597 179.177C231.124 179.177 230.764 179.046 230.515 178.784C230.265 178.521 230.141 178.147 230.141 177.662V176.344L230.436 177.111C230.147 177.78 229.734 178.298 229.196 178.666C228.658 179.033 228.022 179.216 227.288 179.216ZM239.779 182.758C239.07 182.758 238.388 182.699 237.732 182.581C237.09 182.463 236.519 182.286 236.021 182.05C235.719 181.919 235.503 181.748 235.371 181.538C235.253 181.328 235.201 181.105 235.214 180.869C235.24 180.633 235.319 180.423 235.45 180.24C235.594 180.056 235.771 179.925 235.981 179.846C236.191 179.78 236.414 179.8 236.65 179.905C237.227 180.167 237.759 180.338 238.244 180.417C238.742 180.495 239.169 180.535 239.523 180.535C240.362 180.535 240.992 180.345 241.412 179.964C241.832 179.584 242.041 179 242.041 178.213V176.718H242.218C242.022 177.321 241.615 177.813 240.999 178.193C240.382 178.574 239.7 178.764 238.952 178.764C238.087 178.764 237.332 178.567 236.69 178.174C236.047 177.767 235.548 177.203 235.194 176.482C234.84 175.747 234.663 174.901 234.663 173.943C234.663 173.222 234.761 172.566 234.958 171.976C235.168 171.386 235.457 170.881 235.824 170.461C236.204 170.041 236.657 169.72 237.182 169.497C237.719 169.261 238.31 169.142 238.952 169.142C239.726 169.142 240.408 169.333 240.999 169.713C241.602 170.08 242.002 170.566 242.199 171.169L242.002 171.799V170.677C242.002 170.192 242.127 169.825 242.376 169.575C242.638 169.313 243.006 169.182 243.478 169.182C243.95 169.182 244.311 169.313 244.56 169.575C244.809 169.825 244.934 170.192 244.934 170.677V177.878C244.934 179.492 244.488 180.705 243.596 181.518C242.717 182.345 241.445 182.758 239.779 182.758ZM239.838 176.541C240.284 176.541 240.664 176.436 240.979 176.226C241.307 176.016 241.563 175.721 241.746 175.34C241.93 174.947 242.022 174.481 242.022 173.943C242.022 173.13 241.818 172.5 241.412 172.054C241.018 171.595 240.494 171.366 239.838 171.366C239.392 171.366 239.005 171.471 238.677 171.681C238.349 171.877 238.093 172.173 237.91 172.566C237.739 172.946 237.654 173.406 237.654 173.943C237.654 174.757 237.85 175.393 238.244 175.852C238.638 176.311 239.169 176.541 239.838 176.541ZM250.31 179.216C249.601 179.216 248.965 179.079 248.401 178.803C247.837 178.528 247.398 178.154 247.083 177.682C246.768 177.21 246.611 176.678 246.611 176.088C246.611 175.38 246.794 174.822 247.162 174.416C247.529 173.996 248.126 173.701 248.952 173.53C249.779 173.347 250.874 173.255 252.238 173.255H253.281V174.789H252.258C251.589 174.789 251.044 174.829 250.625 174.907C250.218 174.973 249.923 175.091 249.739 175.262C249.569 175.432 249.483 175.668 249.483 175.97C249.483 176.337 249.608 176.639 249.857 176.875C250.12 177.111 250.493 177.229 250.979 177.229C251.359 177.229 251.694 177.144 251.982 176.973C252.284 176.79 252.52 176.547 252.691 176.245C252.861 175.931 252.946 175.576 252.946 175.183V172.92C252.946 172.343 252.815 171.936 252.553 171.7C252.291 171.451 251.845 171.326 251.215 171.326C250.861 171.326 250.474 171.372 250.054 171.464C249.647 171.543 249.195 171.681 248.696 171.877C248.408 172.009 248.152 172.041 247.929 171.976C247.706 171.897 247.536 171.766 247.417 171.582C247.299 171.386 247.24 171.176 247.24 170.953C247.24 170.717 247.306 170.494 247.437 170.284C247.568 170.061 247.785 169.897 248.086 169.792C248.703 169.543 249.28 169.372 249.818 169.28C250.369 169.188 250.874 169.142 251.333 169.142C252.343 169.142 253.169 169.293 253.812 169.595C254.468 169.884 254.96 170.336 255.288 170.953C255.616 171.556 255.78 172.337 255.78 173.294V177.662C255.78 178.147 255.662 178.521 255.425 178.784C255.189 179.046 254.848 179.177 254.402 179.177C253.956 179.177 253.609 179.046 253.36 178.784C253.123 178.521 253.005 178.147 253.005 177.662V176.934L253.143 177.052C253.064 177.498 252.894 177.885 252.632 178.213C252.382 178.528 252.061 178.777 251.667 178.961C251.274 179.131 250.821 179.216 250.31 179.216ZM259.334 179.177C258.835 179.177 258.455 179.046 258.193 178.784C257.93 178.521 257.799 178.147 257.799 177.662V170.677C257.799 170.192 257.924 169.825 258.173 169.575C258.435 169.313 258.796 169.182 259.255 169.182C259.727 169.182 260.088 169.313 260.337 169.575C260.587 169.825 260.711 170.192 260.711 170.677V171.7H260.514C260.672 170.913 261.019 170.303 261.557 169.87C262.095 169.438 262.79 169.195 263.643 169.142C263.971 169.116 264.22 169.202 264.391 169.398C264.574 169.582 264.673 169.89 264.686 170.323C264.712 170.73 264.627 171.051 264.43 171.287C264.246 171.523 263.931 171.668 263.485 171.72L263.033 171.759C262.285 171.825 261.728 172.041 261.36 172.409C261.006 172.776 260.829 173.307 260.829 174.002V177.662C260.829 178.147 260.698 178.521 260.436 178.784C260.186 179.046 259.819 179.177 259.334 179.177ZM266.686 179.098C266.161 179.098 265.742 178.941 265.427 178.626C265.125 178.311 264.974 177.905 264.974 177.406C264.974 176.921 265.125 176.527 265.427 176.226C265.742 175.911 266.161 175.754 266.686 175.754C267.211 175.754 267.617 175.911 267.906 176.226C268.208 176.527 268.359 176.921 268.359 177.406C268.359 177.905 268.208 178.311 267.906 178.626C267.617 178.941 267.211 179.098 266.686 179.098ZM277.312 179C276.801 179 276.407 178.862 276.132 178.587C275.856 178.311 275.718 177.918 275.718 177.406V166.722C275.718 166.211 275.856 165.817 276.132 165.542C276.407 165.266 276.801 165.129 277.312 165.129H281.149C283.523 165.129 285.353 165.732 286.638 166.939C287.937 168.132 288.586 169.838 288.586 172.054C288.586 173.169 288.416 174.16 288.075 175.026C287.747 175.878 287.268 176.6 286.638 177.19C286.009 177.78 285.235 178.233 284.317 178.547C283.399 178.849 282.343 179 281.149 179H277.312ZM278.768 176.501H280.972C281.72 176.501 282.369 176.409 282.92 176.226C283.471 176.042 283.93 175.767 284.297 175.399C284.664 175.032 284.94 174.573 285.123 174.022C285.307 173.458 285.399 172.802 285.399 172.054C285.399 170.559 285.025 169.451 284.277 168.729C283.543 167.995 282.441 167.627 280.972 167.627H278.768V176.501ZM295.52 179.216C294.379 179.216 293.395 179.013 292.569 178.606C291.756 178.187 291.126 177.603 290.68 176.855C290.247 176.095 290.031 175.203 290.031 174.179C290.031 173.183 290.241 172.31 290.66 171.563C291.08 170.802 291.664 170.212 292.412 169.792C293.172 169.359 294.032 169.142 294.989 169.142C295.684 169.142 296.314 169.261 296.878 169.497C297.442 169.72 297.927 170.048 298.334 170.48C298.741 170.9 299.049 171.418 299.259 172.035C299.469 172.638 299.574 173.314 299.574 174.061C299.574 174.311 299.495 174.501 299.337 174.632C299.18 174.75 298.95 174.809 298.649 174.809H292.471V173.274H297.429L297.114 173.55C297.114 173.012 297.035 172.566 296.878 172.212C296.721 171.845 296.491 171.569 296.189 171.386C295.901 171.202 295.54 171.11 295.107 171.11C294.622 171.11 294.209 171.222 293.868 171.445C293.527 171.668 293.264 171.989 293.081 172.409C292.897 172.828 292.805 173.333 292.805 173.924V174.081C292.805 175.078 293.035 175.813 293.494 176.285C293.966 176.757 294.661 176.993 295.579 176.993C295.894 176.993 296.255 176.954 296.662 176.875C297.068 176.796 297.449 176.672 297.803 176.501C298.104 176.357 298.373 176.311 298.609 176.363C298.846 176.403 299.029 176.508 299.16 176.678C299.292 176.849 299.364 177.046 299.377 177.269C299.403 177.492 299.357 177.715 299.239 177.938C299.121 178.147 298.924 178.324 298.649 178.469C298.203 178.718 297.698 178.902 297.134 179.02C296.583 179.151 296.045 179.216 295.52 179.216ZM77.6759 203.177C77.1906 203.177 76.8167 203.046 76.5544 202.784C76.3052 202.521 76.1805 202.147 76.1805 201.662V194.677C76.1805 194.192 76.3052 193.825 76.5544 193.575C76.8167 193.313 77.1774 193.182 77.6365 193.182C78.1088 193.182 78.4695 193.313 78.7187 193.575C78.9679 193.825 79.0925 194.192 79.0925 194.677V195.936L78.8761 195.149C79.1385 194.546 79.5451 194.061 80.096 193.693C80.6469 193.326 81.2962 193.142 82.0439 193.142C82.7916 193.142 83.4146 193.32 83.9131 193.674C84.4115 194.028 84.7657 194.572 84.9756 195.307H84.7001C84.9887 194.638 85.4281 194.113 86.0184 193.733C86.6218 193.339 87.3104 193.142 88.0843 193.142C88.832 193.142 89.4419 193.293 89.9142 193.595C90.3995 193.884 90.7602 194.33 90.9963 194.933C91.2324 195.523 91.3505 196.277 91.3505 197.196V201.662C91.3505 202.147 91.2193 202.521 90.957 202.784C90.7077 203.046 90.347 203.177 89.8748 203.177C89.3895 203.177 89.0156 203.046 88.7533 202.784C88.5041 202.521 88.3795 202.147 88.3795 201.662V197.294C88.3795 196.651 88.2745 196.186 88.0646 195.897C87.8679 195.595 87.5268 195.445 87.0415 195.445C86.4775 195.445 86.0381 195.641 85.7232 196.035C85.4084 196.428 85.251 196.986 85.251 197.707V201.662C85.251 202.147 85.1199 202.521 84.8575 202.784C84.6083 203.046 84.2476 203.177 83.7754 203.177C83.3031 203.177 82.9359 203.046 82.6735 202.784C82.4112 202.521 82.28 202.147 82.28 201.662V197.294C82.28 196.651 82.1751 196.186 81.9652 195.897C81.7684 195.595 81.4274 195.445 80.9421 195.445C80.378 195.445 79.9386 195.641 79.6238 196.035C79.309 196.428 79.1516 196.986 79.1516 197.707V201.662C79.1516 202.672 78.6597 203.177 77.6759 203.177ZM98.0731 203.216C97.0369 203.216 96.1318 203.013 95.3579 202.606C94.5971 202.2 94.0068 201.616 93.5871 200.855C93.1673 200.095 92.9574 199.196 92.9574 198.16C92.9574 197.386 93.0755 196.691 93.3116 196.074C93.5477 195.458 93.8888 194.933 94.3347 194.5C94.7938 194.054 95.3382 193.72 95.9678 193.497C96.5974 193.261 97.2992 193.142 98.0731 193.142C99.1094 193.142 100.008 193.346 100.769 193.752C101.543 194.159 102.139 194.736 102.559 195.484C102.992 196.232 103.208 197.124 103.208 198.16C103.208 198.947 103.084 199.649 102.835 200.265C102.599 200.882 102.257 201.413 101.811 201.859C101.366 202.305 100.821 202.646 100.178 202.882C99.5488 203.105 98.847 203.216 98.0731 203.216ZM98.0731 200.993C98.506 200.993 98.8798 200.888 99.1946 200.678C99.5094 200.468 99.7587 200.16 99.9423 199.754C100.126 199.334 100.218 198.803 100.218 198.16C100.218 197.202 100.021 196.5 99.6275 196.054C99.234 195.595 98.7159 195.366 98.0731 195.366C97.6534 195.366 97.2795 195.464 96.9516 195.661C96.6368 195.858 96.3876 196.166 96.2039 196.586C96.0334 196.992 95.9481 197.517 95.9481 198.16C95.9481 199.117 96.1449 199.832 96.5384 200.304C96.9319 200.764 97.4435 200.993 98.0731 200.993ZM106.354 203.177C105.856 203.177 105.475 203.046 105.213 202.784C104.95 202.521 104.819 202.147 104.819 201.662V194.677C104.819 194.192 104.944 193.825 105.193 193.575C105.455 193.313 105.816 193.182 106.275 193.182C106.747 193.182 107.108 193.313 107.357 193.575C107.607 193.825 107.731 194.192 107.731 194.677V195.7H107.534C107.692 194.913 108.04 194.303 108.577 193.87C109.115 193.438 109.81 193.195 110.663 193.142C110.991 193.116 111.24 193.202 111.411 193.398C111.594 193.582 111.693 193.89 111.706 194.323C111.732 194.73 111.647 195.051 111.45 195.287C111.266 195.523 110.952 195.668 110.506 195.72L110.053 195.759C109.305 195.825 108.748 196.041 108.381 196.409C108.026 196.776 107.849 197.307 107.849 198.002V201.662C107.849 202.147 107.718 202.521 107.456 202.784C107.207 203.046 106.839 203.177 106.354 203.177ZM115.901 203.216C115.193 203.216 114.557 203.079 113.993 202.803C113.429 202.528 112.989 202.154 112.674 201.682C112.359 201.21 112.202 200.678 112.202 200.088C112.202 199.38 112.386 198.822 112.753 198.416C113.12 197.996 113.717 197.701 114.543 197.53C115.37 197.347 116.465 197.255 117.829 197.255H118.872V198.789H117.849C117.18 198.789 116.636 198.829 116.216 198.907C115.809 198.973 115.514 199.091 115.331 199.262C115.16 199.432 115.075 199.668 115.075 199.97C115.075 200.337 115.199 200.639 115.449 200.875C115.711 201.111 116.085 201.229 116.57 201.229C116.95 201.229 117.285 201.144 117.574 200.973C117.875 200.79 118.111 200.547 118.282 200.245C118.452 199.931 118.538 199.576 118.538 199.183V196.92C118.538 196.343 118.406 195.936 118.144 195.7C117.882 195.451 117.436 195.326 116.806 195.326C116.452 195.326 116.065 195.372 115.645 195.464C115.239 195.543 114.786 195.681 114.288 195.877C113.999 196.009 113.743 196.041 113.52 195.976C113.297 195.897 113.127 195.766 113.009 195.582C112.891 195.386 112.832 195.176 112.832 194.953C112.832 194.717 112.897 194.494 113.028 194.284C113.16 194.061 113.376 193.897 113.678 193.792C114.294 193.543 114.871 193.372 115.409 193.28C115.96 193.188 116.465 193.142 116.924 193.142C117.934 193.142 118.761 193.293 119.403 193.595C120.059 193.884 120.551 194.336 120.879 194.953C121.207 195.556 121.371 196.337 121.371 197.294V201.662C121.371 202.147 121.253 202.521 121.017 202.784C120.781 203.046 120.44 203.177 119.994 203.177C119.548 203.177 119.2 203.046 118.951 202.784C118.715 202.521 118.597 202.147 118.597 201.662V200.934L118.734 201.052C118.656 201.498 118.485 201.885 118.223 202.213C117.974 202.528 117.652 202.777 117.259 202.961C116.865 203.131 116.413 203.216 115.901 203.216ZM124.925 203.177C124.427 203.177 124.046 203.046 123.784 202.784C123.522 202.521 123.39 202.147 123.39 201.662V194.677C123.39 194.192 123.515 193.825 123.764 193.575C124.027 193.313 124.387 193.182 124.846 193.182C125.319 193.182 125.679 193.313 125.929 193.575C126.178 193.825 126.302 194.192 126.302 194.677V195.7H126.106C126.263 194.913 126.611 194.303 127.149 193.87C127.686 193.438 128.382 193.195 129.234 193.142C129.562 193.116 129.811 193.202 129.982 193.398C130.165 193.582 130.264 193.89 130.277 194.323C130.303 194.73 130.218 195.051 130.021 195.287C129.838 195.523 129.523 195.668 129.077 195.72L128.624 195.759C127.877 195.825 127.319 196.041 126.952 196.409C126.598 196.776 126.421 197.307 126.421 198.002V201.662C126.421 202.147 126.289 202.521 126.027 202.784C125.778 203.046 125.411 203.177 124.925 203.177ZM132.277 203.098C131.753 203.098 131.333 202.941 131.018 202.626C130.716 202.311 130.566 201.905 130.566 201.406C130.566 200.921 130.716 200.527 131.018 200.226C131.333 199.911 131.753 199.754 132.277 199.754C132.802 199.754 133.209 199.911 133.497 200.226C133.799 200.527 133.95 200.921 133.95 201.406C133.95 201.905 133.799 202.311 133.497 202.626C133.209 202.941 132.802 203.098 132.277 203.098ZM142.904 203C142.392 203 141.998 202.862 141.723 202.587C141.448 202.311 141.31 201.918 141.31 201.406V190.722C141.31 190.211 141.448 189.817 141.723 189.542C141.998 189.266 142.392 189.129 142.904 189.129H146.74C149.114 189.129 150.944 189.732 152.23 190.939C153.528 192.132 154.178 193.838 154.178 196.054C154.178 197.169 154.007 198.16 153.666 199.026C153.338 199.878 152.859 200.6 152.23 201.19C151.6 201.78 150.826 202.233 149.908 202.547C148.99 202.849 147.934 203 146.74 203H142.904ZM144.36 200.501H146.563C147.311 200.501 147.96 200.409 148.511 200.226C149.062 200.042 149.521 199.767 149.888 199.399C150.256 199.032 150.531 198.573 150.715 198.022C150.898 197.458 150.99 196.802 150.99 196.054C150.99 194.559 150.616 193.451 149.869 192.729C149.134 191.995 148.032 191.627 146.563 191.627H144.36V200.501ZM161.112 203.216C159.97 203.216 158.987 203.013 158.16 202.606C157.347 202.187 156.717 201.603 156.271 200.855C155.839 200.095 155.622 199.203 155.622 198.179C155.622 197.183 155.832 196.31 156.252 195.563C156.672 194.802 157.255 194.212 158.003 193.792C158.764 193.359 159.623 193.142 160.58 193.142C161.276 193.142 161.905 193.261 162.469 193.497C163.033 193.72 163.519 194.048 163.925 194.48C164.332 194.9 164.64 195.418 164.85 196.035C165.06 196.638 165.165 197.314 165.165 198.061C165.165 198.311 165.086 198.501 164.929 198.632C164.771 198.75 164.542 198.809 164.24 198.809H158.062V197.274H163.02L162.705 197.55C162.705 197.012 162.627 196.566 162.469 196.212C162.312 195.845 162.082 195.569 161.781 195.386C161.492 195.202 161.131 195.11 160.698 195.11C160.213 195.11 159.8 195.222 159.459 195.445C159.118 195.668 158.856 195.989 158.672 196.409C158.488 196.828 158.396 197.333 158.396 197.924V198.081C158.396 199.078 158.626 199.813 159.085 200.285C159.557 200.757 160.253 200.993 161.171 200.993C161.486 200.993 161.846 200.954 162.253 200.875C162.659 200.796 163.04 200.672 163.394 200.501C163.696 200.357 163.965 200.311 164.201 200.363C164.437 200.403 164.621 200.508 164.752 200.678C164.883 200.849 164.955 201.046 164.968 201.269C164.994 201.492 164.948 201.715 164.83 201.938C164.712 202.147 164.516 202.324 164.24 202.469C163.794 202.718 163.289 202.902 162.725 203.02C162.174 203.151 161.636 203.216 161.112 203.216ZM176.087 203.177C175.707 203.177 175.372 203.079 175.084 202.882C174.795 202.672 174.566 202.364 174.395 201.957L171.424 195.11C171.28 194.769 171.227 194.454 171.267 194.166C171.306 193.864 171.444 193.628 171.68 193.457C171.929 193.274 172.27 193.182 172.703 193.182C173.057 193.182 173.346 193.267 173.569 193.438C173.792 193.595 173.989 193.903 174.159 194.362L176.481 200.265H175.851L178.271 194.343C178.455 193.897 178.658 193.595 178.881 193.438C179.104 193.267 179.413 193.182 179.806 193.182C180.147 193.182 180.416 193.274 180.613 193.457C180.823 193.628 180.947 193.857 180.987 194.146C181.039 194.435 180.987 194.749 180.829 195.09L177.799 201.957C177.629 202.377 177.399 202.685 177.11 202.882C176.835 203.079 176.494 203.177 176.087 203.177ZM183.804 203.157C183.318 203.157 182.945 203.02 182.682 202.744C182.433 202.456 182.308 202.056 182.308 201.544V194.815C182.308 194.29 182.433 193.89 182.682 193.615C182.945 193.326 183.318 193.182 183.804 193.182C184.276 193.182 184.637 193.326 184.886 193.615C185.148 193.89 185.279 194.29 185.279 194.815V201.544C185.279 202.056 185.155 202.456 184.906 202.744C184.656 203.02 184.289 203.157 183.804 203.157ZM183.804 191.568C183.253 191.568 182.826 191.444 182.525 191.195C182.236 190.932 182.092 190.565 182.092 190.093C182.092 189.607 182.236 189.24 182.525 188.991C182.826 188.729 183.253 188.597 183.804 188.597C184.355 188.597 184.774 188.729 185.063 188.991C185.352 189.24 185.496 189.607 185.496 190.093C185.496 190.565 185.352 190.932 185.063 191.195C184.774 191.444 184.355 191.568 183.804 191.568ZM191.469 203.177C191.089 203.177 190.754 203.079 190.465 202.882C190.177 202.672 189.947 202.364 189.777 201.957L186.806 195.11C186.662 194.769 186.609 194.454 186.648 194.166C186.688 193.864 186.825 193.628 187.062 193.457C187.311 193.274 187.652 193.182 188.085 193.182C188.439 193.182 188.727 193.267 188.95 193.438C189.173 193.595 189.37 193.903 189.541 194.362L191.862 200.265H191.233L193.653 194.343C193.837 193.897 194.04 193.595 194.263 193.438C194.486 193.267 194.794 193.182 195.188 193.182C195.529 193.182 195.798 193.274 195.994 193.457C196.204 193.628 196.329 193.857 196.368 194.146C196.421 194.435 196.368 194.749 196.211 195.09L193.181 201.957C193.01 202.377 192.781 202.685 192.492 202.882C192.217 203.079 191.876 203.177 191.469 203.177ZM202.477 203.216C201.336 203.216 200.352 203.013 199.525 202.606C198.712 202.187 198.082 201.603 197.636 200.855C197.204 200.095 196.987 199.203 196.987 198.179C196.987 197.183 197.197 196.31 197.617 195.563C198.037 194.802 198.62 194.212 199.368 193.792C200.129 193.359 200.988 193.142 201.945 193.142C202.641 193.142 203.27 193.261 203.834 193.497C204.398 193.72 204.884 194.048 205.29 194.48C205.697 194.9 206.005 195.418 206.215 196.035C206.425 196.638 206.53 197.314 206.53 198.061C206.53 198.311 206.451 198.501 206.294 198.632C206.136 198.75 205.907 198.809 205.605 198.809H199.427V197.274H204.385L204.07 197.55C204.07 197.012 203.992 196.566 203.834 196.212C203.677 195.845 203.447 195.569 203.146 195.386C202.857 195.202 202.496 195.11 202.064 195.11C201.578 195.11 201.165 195.222 200.824 195.445C200.483 195.668 200.221 195.989 200.037 196.409C199.853 196.828 199.761 197.333 199.761 197.924V198.081C199.761 199.078 199.991 199.813 200.45 200.285C200.922 200.757 201.618 200.993 202.536 200.993C202.851 200.993 203.211 200.954 203.618 200.875C204.025 200.796 204.405 200.672 204.759 200.501C205.061 200.357 205.33 200.311 205.566 200.363C205.802 200.403 205.986 200.508 206.117 200.678C206.248 200.849 206.32 201.046 206.333 201.269C206.359 201.492 206.313 201.715 206.195 201.938C206.077 202.147 205.881 202.324 205.605 202.469C205.159 202.718 204.654 202.902 204.09 203.02C203.539 203.151 203.001 203.216 202.477 203.216ZM209.596 203.177C209.097 203.177 208.717 203.046 208.455 202.784C208.192 202.521 208.061 202.147 208.061 201.662V194.677C208.061 194.192 208.186 193.825 208.435 193.575C208.697 193.313 209.058 193.182 209.517 193.182C209.989 193.182 210.35 193.313 210.599 193.575C210.849 193.825 210.973 194.192 210.973 194.677V195.7H210.776C210.934 194.913 211.281 194.303 211.819 193.87C212.357 193.438 213.052 193.195 213.905 193.142C214.233 193.116 214.482 193.202 214.653 193.398C214.836 193.582 214.935 193.89 214.948 194.323C214.974 194.73 214.889 195.051 214.692 195.287C214.508 195.523 214.193 195.668 213.747 195.72L213.295 195.759C212.547 195.825 211.99 196.041 211.623 196.409C211.268 196.776 211.091 197.307 211.091 198.002V201.662C211.091 202.147 210.96 202.521 210.698 202.784C210.449 203.046 210.081 203.177 209.596 203.177ZM216.948 203.098C216.423 203.098 216.004 202.941 215.689 202.626C215.387 202.311 215.236 201.905 215.236 201.406C215.236 200.921 215.387 200.527 215.689 200.226C216.004 199.911 216.423 199.754 216.948 199.754C217.473 199.754 217.879 199.911 218.168 200.226C218.47 200.527 218.621 200.921 218.621 201.406C218.621 201.905 218.47 202.311 218.168 202.626C217.879 202.941 217.473 203.098 216.948 203.098Z" fill="#F04362"/>
<path d="M46.9492 80.6311L46.948 80.6311C45.1044 80.6325 43.2874 81.0693 41.6465 81.9057C40.0056 82.7421 38.5877 83.9542 37.5097 85.4423C36.4317 86.9305 35.7243 88.6521 35.4462 90.4656C35.168 92.279 35.3269 94.1323 35.9098 95.8726L35.9102 95.8739L41.4124 112.109L41.4124 112.109L41.4142 112.114C41.6128 112.673 41.6128 113.282 41.4142 113.841L41.4142 113.841L41.4123 113.846L35.9101 130.126L35.9098 130.127C35.3269 131.868 35.168 133.721 35.4462 135.534C35.7243 137.348 36.4317 139.069 37.5097 140.558C38.5877 142.046 40.0056 143.258 41.6465 144.094C43.2874 144.931 45.1044 145.368 46.948 145.369L46.9496 145.369C49.39 145.36 51.7665 144.592 53.7459 143.172C55.7253 141.751 57.2083 139.75 57.9865 137.449L57.9868 137.448L64.5708 117.805C64.571 117.805 64.5711 117.805 64.5712 117.804C65.6349 114.673 65.6348 111.281 64.5708 108.15L57.9865 88.6856L57.986 88.6842C57.1999 86.3914 55.7136 84.4004 53.7349 82.9889C51.7722 81.589 49.4014 80.6366 46.9492 80.6311ZM55.8442 89.415L55.8442 89.4151L62.4729 109.056C62.4731 109.057 62.4732 109.057 62.4734 109.058C63.3508 111.736 63.3508 114.623 62.4734 117.301C62.4733 117.302 62.4731 117.302 62.4729 117.303L55.8443 136.943C55.4512 138.105 54.8321 139.178 54.0219 140.101C53.2117 141.025 52.2264 141.781 51.1222 142.326C50.018 142.871 48.8166 143.194 47.5865 143.277C46.3565 143.361 45.1219 143.202 43.9535 142.811C42.7851 142.42 41.7058 141.804 40.777 140.998C39.8482 140.193 39.0883 139.213 38.5404 138.115C37.9926 137.018 37.6676 135.824 37.5838 134.601C37.5001 133.379 37.6593 132.152 38.0523 130.991C38.0523 130.991 38.0523 130.991 38.0523 130.991L43.5538 114.757C43.5539 114.757 43.554 114.757 43.5541 114.757C43.907 113.735 43.9071 112.625 43.5542 111.602C43.554 111.602 43.5539 111.602 43.5538 111.601L38.0524 95.3234L38.0523 95.323C37.5768 93.9205 37.4442 92.4255 37.6655 90.9619C37.8867 89.4983 38.4554 88.1081 39.3246 86.9063C40.1939 85.7046 41.3387 84.7258 42.6644 84.0513C43.99 83.377 45.4582 83.0263 46.9474 83.0284C48.916 83.0351 50.8327 83.655 52.4285 84.8006C54.0242 85.9463 55.2186 87.5601 55.8442 89.415ZM12.2201 80.6311L12.2196 80.6311C10.3799 80.6398 8.56841 81.082 6.93354 81.9214C5.29865 82.7609 3.88694 83.9739 2.81421 85.4611C1.74148 86.9482 1.03826 88.6672 0.762505 90.477C0.486754 92.2869 0.646339 94.136 1.22801 95.8726L1.22814 95.873L6.68519 112.108L6.68514 112.108L6.68728 112.114C6.88584 112.673 6.88584 113.282 6.68728 113.841L6.68723 113.841L6.6851 113.847L1.22804 130.127L1.22801 130.127C0.646339 131.864 0.486754 133.713 0.762505 135.523C1.03826 137.333 1.74148 139.052 2.81421 140.539C3.88694 142.026 5.29866 143.239 6.93354 144.079C8.56841 144.918 10.3799 145.36 12.2196 145.369L12.2216 145.369C14.664 145.367 17.0441 144.601 19.0251 143.18C21.006 141.759 22.4877 139.754 23.2599 137.448C23.2599 137.448 23.26 137.448 23.26 137.448L29.8894 117.805L29.8908 117.801C30.908 114.665 30.908 111.29 29.8908 108.155L29.8908 108.155L29.8891 108.149L23.2598 88.6862C23.2598 88.686 23.2597 88.6857 23.2596 88.6855C22.4855 86.3848 21.0018 84.3857 19.02 82.9721C17.0542 81.5698 14.6764 80.6226 12.2201 80.6311ZM21.1174 89.415L21.1174 89.4151L27.7461 109.056C27.7462 109.057 27.7464 109.057 27.7465 109.057C28.624 111.736 28.624 114.623 27.7465 117.301C27.7464 117.302 27.7462 117.302 27.7461 117.303L21.1175 136.943C20.7244 138.105 20.1052 139.178 19.2949 140.101C18.4847 141.025 17.4994 141.781 16.3952 142.326C15.291 142.871 14.0896 143.194 12.8595 143.277C11.6295 143.361 10.395 143.202 9.22655 142.811C8.05815 142.42 6.97883 141.804 6.05005 140.998C5.12128 140.193 4.3613 139.213 3.81346 138.115C3.26563 137.018 2.94063 135.824 2.85689 134.601C2.77314 133.379 2.9323 132.152 3.32532 130.991C3.32533 130.991 3.32535 130.991 3.32536 130.991L8.82681 114.757C8.82692 114.757 8.82704 114.757 8.82716 114.756C9.18008 113.734 9.18011 112.625 8.82723 111.603C8.82709 111.602 8.82695 111.602 8.82681 111.601L3.32606 95.3253C3.32596 95.325 3.32585 95.3247 3.32575 95.3244C2.86053 93.9219 2.73561 92.43 2.96106 90.9704C3.18655 89.5105 3.75616 88.1242 4.62365 86.9249C5.49116 85.7256 6.63195 84.7471 7.95278 84.0698C9.27315 83.3928 10.7359 83.0359 12.2216 83.0284C14.1898 83.0354 16.1061 83.6552 17.7015 84.8006C19.2973 85.9463 20.4918 87.5601 21.1174 89.415Z" fill="#F04362" stroke="#F04362" stroke-width="0.737838"/>
</svg>
