<svg width="93" height="32" viewBox="0 0 93 32" fill="none" xmlns="http://www.w3.org/2000/svg">
<path d="M43.4484 3.21172C43.4484 4.98372 42.0104 6.42176 40.2384 6.42176C38.4664 6.42176 37.0283 4.98372 37.0283 3.21172C37.0283 1.43972 38.4664 0.00166893 40.2384 0.00166893C42.0104 0.00166893 43.4484 1.43972 43.4484 3.21172Z" fill="#3031F2"/>
<path d="M40.2384 9.6319C38.4664 9.6319 37.0283 11.0699 37.0283 12.8419V28.79C37.0283 30.562 38.4664 32 40.2384 32C42.0104 32 43.4484 30.562 43.4484 28.79V12.8419C43.4484 11.0699 42.0104 9.6319 40.2384 9.6319" fill="#3031F2"/>
<path d="M62.7013 0.00166893C60.9293 0.00166893 59.4912 1.43972 59.4912 3.21172V28.7899C59.4912 30.5619 60.9293 31.9999 62.7013 31.9999C64.4733 31.9999 65.9113 30.5619 65.9113 28.7899V3.21172C65.9113 1.43972 64.4801 0.00166893 62.7013 0.00166893Z" fill="#3031F2"/>
<path d="M51.4698 0.00166893C49.6978 0.00166893 48.2598 1.43972 48.2598 3.21172V28.7899C48.2598 30.5619 49.6978 31.9999 51.4698 31.9999C53.2418 31.9999 54.6799 30.5619 54.6799 28.7899V3.21172C54.6799 1.43972 53.2418 0.00166893 51.4698 0.00166893Z" fill="#3031F2"/>
<path d="M82.1454 25.4299C79.3102 25.6071 76.9794 23.2762 77.1566 20.441C77.3065 18.1034 79.2012 16.2087 81.5321 16.0587C84.3673 15.8815 86.6981 18.2124 86.5209 21.0476C86.371 23.3853 84.4763 25.28 82.1386 25.4299M82.0432 9.63182C75.739 9.51596 70.6002 14.6479 70.7229 20.9522C70.8319 26.8952 75.6845 31.7409 81.6207 31.85C87.9249 31.9659 93.0569 26.8339 92.941 20.5296C92.832 14.5866 87.9794 9.74087 82.0432 9.63182" fill="#3031F2"/>
<path d="M23.7177 2.30531L17.502 0.219796C16.6297 -0.0732654 15.696 -0.0732654 14.8236 0.219796L8.60795 2.30531C7.36073 2.72104 6.51562 3.89329 6.51562 5.21548C6.51562 7.3078 8.56706 8.78674 10.5571 8.11883L15.7028 6.39454C16.0026 6.29231 16.3298 6.29231 16.6297 6.39454L21.7753 8.11883C23.7586 8.78674 25.8168 7.3078 25.8168 5.21548C25.8168 3.90011 24.9717 2.72786 23.7245 2.30531" fill="#F04362"/>
<path d="M29.0949 9.46833C27.3093 9.46833 25.8644 10.9132 25.8644 12.6988V22.2063C25.8644 24.0192 24.3855 25.5595 22.5726 25.5254C20.8142 25.4913 19.4034 24.0601 19.4034 22.2949V15.9361C19.4034 14.1505 17.9585 12.7056 16.1729 12.7056C14.3873 12.7056 12.9424 14.1505 12.9424 15.9361V22.2949C12.9424 24.0805 11.4976 25.5254 9.71193 25.5254C7.9263 25.5254 6.48143 24.0805 6.48143 22.2949V12.6988C6.48143 10.9132 5.03657 9.46833 3.25094 9.46833C1.46531 9.46833 0 10.92 0 12.7056V21.6951C0 30.0031 9.3439 34.8829 16.1661 30.1326C22.9815 34.8829 32.3322 30.0031 32.3322 21.6951V12.7056C32.3322 10.92 30.8873 9.47515 29.1017 9.47515" fill="#3031F2"/>
</svg>
