<svg width="40" height="40" viewBox="0 0 40 40" fill="none" xmlns="http://www.w3.org/2000/svg">
<path fill-rule="evenodd" clip-rule="evenodd" d="M11.25 5.00024C10.587 5.00024 9.95107 5.26364 9.48223 5.73248C9.01339 6.20132 8.75 6.8372 8.75 7.50024V32.5002C8.75 33.1633 9.01339 33.7992 9.48223 34.268C9.95107 34.7369 10.587 35.0002 11.25 35.0002H28.75C29.413 35.0002 30.0489 34.7369 30.5178 34.268C30.9866 33.7992 31.25 33.1633 31.25 32.5002V17.5002H22.5C21.5054 17.5002 20.5516 17.1052 19.8484 16.4019C19.1451 15.6986 18.75 14.7448 18.75 13.7502V5.00024H11.25ZM21.25 6.76801L29.4822 15.0002H22.5C22.1685 15.0002 21.8505 14.8685 21.6161 14.6341C21.3817 14.3997 21.25 14.0818 21.25 13.7502V6.76801ZM7.71447 3.96471C8.65215 3.02703 9.92392 2.50024 11.25 2.50024H18.965C19.9592 2.50039 20.9127 2.89535 21.6158 3.59829L21.6159 3.59839L32.652 14.6344C33.3549 15.3375 33.7498 16.291 33.75 17.2852V32.5002C33.75 33.8263 33.2232 35.0981 32.2855 36.0358C31.3479 36.9735 30.0761 37.5002 28.75 37.5002H11.25C9.92392 37.5002 8.65215 36.9735 7.71447 36.0358C6.77678 35.0981 6.25 33.8263 6.25 32.5002V7.50024C6.25 6.17416 6.77678 4.90239 7.71447 3.96471ZM12.5 22.5002C12.5 21.8099 13.0596 21.2502 13.75 21.2502H26.25C26.9404 21.2502 27.5 21.8099 27.5 22.5002C27.5 23.1906 26.9404 23.7502 26.25 23.7502H13.75C13.0596 23.7502 12.5 23.1906 12.5 22.5002ZM12.5 28.7502C12.5 28.0599 13.0596 27.5002 13.75 27.5002H26.25C26.9404 27.5002 27.5 28.0599 27.5 28.7502C27.5 29.4406 26.9404 30.0002 26.25 30.0002H13.75C13.0596 30.0002 12.5 29.4406 12.5 28.7502Z" fill="#3031F2"/>
</svg>
