<svg width="40" height="27" viewBox="0 0 40 27" fill="none" xmlns="http://www.w3.org/2000/svg">
<path fill-rule="evenodd" clip-rule="evenodd" d="M2.51455 23.2353L2.50909 23.2275C0.820542 20.8081 0.0771484 17.5476 0.0771484 13.6398C0.0771484 11.018 0.41182 8.7132 1.13902 6.77399L1.14281 6.76389L1.14285 6.7639C1.89183 4.80688 3.0121 3.22132 4.55941 2.1268C6.1333 1.00714 8.00762 0.487793 10.0931 0.487793C13.2836 0.487793 15.8899 1.66908 17.661 4.12526C19.37 6.47413 20.1091 9.7216 20.1091 13.6398C20.1091 16.266 19.7627 18.5903 19.0156 20.5686C18.2892 22.5275 17.1849 24.1262 15.654 25.2611C14.0913 26.4196 12.2035 26.9518 10.0931 26.9518C6.90384 26.9518 4.30318 25.7341 2.5201 23.2431L2.51455 23.2353ZM16.3651 5.06379C14.9358 3.07979 12.8451 2.08779 10.0931 2.08779C8.27982 2.08779 6.74381 2.53579 5.48515 3.43179C4.24782 4.30646 3.29848 5.60779 2.63715 7.33579C1.99715 9.04246 1.67715 11.1438 1.67715 13.6398C1.67715 17.3731 2.39182 20.2638 3.82115 22.3118C5.27182 24.3385 7.36248 25.3518 10.0931 25.3518C11.9278 25.3518 13.4638 24.8931 14.7011 23.9758C15.9385 23.0585 16.8771 21.7358 17.5171 20.0078C18.1785 18.2585 18.5091 16.1358 18.5091 13.6398C18.5091 9.88513 17.7945 7.02646 16.3651 5.06379ZM25.5628 26.5274L25.5462 26.5234C24.2828 26.2192 23.1386 25.7885 22.1338 25.2136C21.4089 24.8198 20.7487 24.2724 20.3448 23.505L20.3218 23.4613L20.3016 23.4164C20.0109 22.7703 19.869 22.0707 19.9454 21.3443L19.9498 21.3031L19.9562 21.2623C20.068 20.5541 20.3732 19.9165 20.8577 19.3871C21.3718 18.803 22.0355 18.4299 22.7909 18.2789L22.7981 18.2774L22.8053 18.2761C23.6769 18.11 24.5191 18.3014 25.269 18.6614L25.2774 18.6654L25.2774 18.6654C26.0216 19.0279 26.6951 19.2695 27.3012 19.408C27.9339 19.5526 28.561 19.6238 29.1846 19.6238C29.8999 19.6238 30.4057 19.5349 30.749 19.4121C31.0798 19.2733 31.2416 19.1203 31.3299 18.9943C31.4009 18.8928 31.4886 18.6996 31.4886 18.3118C31.4886 17.8277 31.3497 17.684 31.2222 17.5917C30.9915 17.4246 30.4753 17.2238 29.4406 17.2238H27.5526C26.6027 17.2238 25.6278 16.9922 24.8577 16.3076L24.8225 16.2764L24.7893 16.2432C24.0663 15.5202 23.7766 14.5893 23.7766 13.6398C23.7766 12.6919 24.0545 11.7276 24.8231 11.0036C25.5917 10.2783 26.5798 10.0238 27.5526 10.0238H28.9606C29.5288 10.0238 29.9007 9.94042 30.133 9.84233C30.4109 9.71241 30.5592 9.57027 30.6482 9.4403L30.664 9.4172L30.6806 9.39467C30.7409 9.31278 30.8166 9.16114 30.8166 8.83979C30.8166 8.40796 30.6936 8.26754 30.5606 8.16779L30.5494 8.15937L30.5383 8.15076C30.356 8.00894 29.9219 7.81579 28.9926 7.81579C28.4449 7.81579 27.9073 7.88406 27.3765 8.02104L27.3528 8.02713L27.3291 8.0325C26.8372 8.14357 26.2559 8.36178 25.5795 8.71881L25.5639 8.72701L25.5482 8.73488C24.8434 9.08726 24.0353 9.27121 23.191 9.09347L23.5206 7.52779C23.926 7.61313 24.3633 7.53846 24.8326 7.30379C25.6006 6.89846 26.3153 6.62113 26.9766 6.47179C27.638 6.30113 28.31 6.21579 28.9926 6.21579C30.102 6.21579 30.9446 6.43979 31.5206 6.88779C32.118 7.33579 32.4166 7.98646 32.4166 8.83979C32.4166 9.43713 32.2673 9.93846 31.9686 10.3438C31.6913 10.7491 31.2966 11.0691 30.7846 11.3038C30.294 11.5171 29.686 11.6238 28.9606 11.6238H27.5526C26.8486 11.6238 26.3046 11.8051 25.9206 12.1678C25.558 12.5091 25.3766 12.9998 25.3766 13.6398C25.3766 14.2585 25.558 14.7491 25.9206 15.1118C26.3046 15.4531 26.8486 15.6238 27.5526 15.6238H29.4406C30.6353 15.6238 31.542 15.8478 32.1606 16.2958C32.7793 16.7438 33.0886 17.4158 33.0886 18.3118C33.0886 18.9518 32.9393 19.4851 32.6406 19.9118C32.342 20.3385 31.9046 20.6691 31.3286 20.9038C30.7526 21.1171 30.038 21.2238 29.1846 21.2238C28.438 21.2238 27.6913 21.1385 26.9446 20.9678C26.198 20.7971 25.4086 20.5091 24.5766 20.1038C24.0433 19.8478 23.5526 19.7625 23.1046 19.8478C22.678 19.9331 22.326 20.1358 22.0486 20.4558C21.7713 20.7545 21.6006 21.1065 21.5366 21.5118C21.494 21.9171 21.5686 22.3331 21.7606 22.7598C21.974 23.1651 22.358 23.5171 22.9126 23.8158C23.766 24.3065 24.7686 24.6905 25.9206 24.9678C27.094 25.2238 28.246 25.3518 29.3766 25.3518C31.126 25.3518 32.63 25.0851 33.8886 24.5518C35.1686 24.0185 36.15 23.2611 36.8326 22.2798C37.5153 21.2771 37.8566 20.1038 37.8566 18.7598C37.8566 17.2451 37.43 15.9865 36.5766 14.9838C36.3011 14.66 35.9911 14.3752 35.6466 14.1293C35.3044 13.8851 34.9283 13.6792 34.5182 13.5118C34.2918 13.4194 34.0551 13.3387 33.808 13.2696C33.9484 13.2161 34.0843 13.1581 34.2158 13.0958C34.5905 12.9182 34.9294 12.7049 35.2326 12.4558C35.3307 12.3747 35.4252 12.2909 35.5163 12.2044C36 11.745 36.3854 11.2102 36.6726 10.5998C37.014 9.87446 37.1846 9.07446 37.1846 8.19979C37.1846 6.91979 36.8753 5.83179 36.2566 4.93579C35.638 4.01846 34.7526 3.31446 33.6006 2.82379C32.4486 2.33313 31.062 2.08779 29.4406 2.08779C28.3313 2.08779 27.2326 2.22646 26.1446 2.50379C25.078 2.78113 24.086 3.18646 23.1686 3.71979C22.678 3.97579 22.3366 4.30646 22.1446 4.71179C21.974 5.11713 21.9206 5.52246 21.9846 5.92779C22.07 6.31179 22.2406 6.65313 22.4966 6.95179C22.774 7.25046 23.1153 7.44246 23.5206 7.52779L23.191 9.09347C22.4679 8.94123 21.8303 8.58561 21.3242 8.04051L21.3025 8.01721L21.2818 7.99306C20.8549 7.49499 20.5651 6.91526 20.4227 6.27488L20.412 6.2264L20.4042 6.17733C20.2904 5.45642 20.3924 4.75034 20.67 4.0909L20.6836 4.05857L20.6987 4.02686C21.0659 3.25148 21.6828 2.69775 22.3941 2.31942C23.4335 1.71873 24.5514 1.26484 25.742 0.955277L25.7494 0.953352L25.7494 0.95337C26.965 0.643517 28.1964 0.487793 29.4406 0.487793C31.2167 0.487793 32.8282 0.755722 34.2276 1.35175C35.6229 1.94605 36.7663 2.83253 37.5794 4.03555C38.4089 5.24125 38.7846 6.65725 38.7846 8.19979C38.7846 9.28824 38.5708 10.3238 38.1204 11.2811C37.8067 11.9476 37.4001 12.5476 36.9043 13.0765C37.2238 13.3353 37.5213 13.6251 37.7951 13.9468C38.9313 15.2818 39.4566 16.9256 39.4566 18.7598C39.4566 20.3889 39.038 21.8837 38.1552 23.1803L38.1507 23.1869L38.1461 23.1935C37.2637 24.462 36.0222 25.3953 34.5086 26.0268C33.0066 26.6624 31.2811 26.9518 29.3766 26.9518C28.1244 26.9518 26.858 26.81 25.5796 26.531L25.5628 26.5274ZM12.8451 7.87979L11.4193 8.60569C11.2228 8.21976 11.0202 8.01839 10.8471 7.90771C10.6796 7.80062 10.4491 7.71979 10.0931 7.71979C9.73721 7.71979 9.50665 7.80062 9.33919 7.90771C9.16614 8.01839 8.96348 8.21976 8.76701 8.60569C8.35116 9.42254 8.04515 11.0176 8.04515 13.6398C8.04515 16.246 8.34667 17.8946 8.77965 18.7953C8.98119 19.2039 9.18857 19.4158 9.36109 19.5301C9.52589 19.6394 9.74847 19.7198 10.0931 19.7198C10.4378 19.7198 10.6604 19.6394 10.8252 19.5301C10.9977 19.4158 11.2051 19.2039 11.4066 18.7953C11.8396 17.8947 12.1411 16.2461 12.1411 13.6398C12.1411 11.0176 11.8351 9.42254 11.4193 8.60569L12.8451 7.87979ZM12.8451 19.4958C12.2478 20.7118 11.3305 21.3198 10.0931 21.3198C8.85582 21.3198 7.93848 20.7118 7.34115 19.4958C6.74382 18.2585 6.44515 16.3065 6.44515 13.6398C6.44515 10.9731 6.74382 9.05313 7.34115 7.87979C7.93848 6.70646 8.85582 6.11979 10.0931 6.11979C11.3305 6.11979 12.2478 6.70646 12.8451 7.87979C13.4425 9.05313 13.7411 10.9731 13.7411 13.6398C13.7411 16.3065 13.4425 18.2585 12.8451 19.4958Z" fill="#AAAAFF"/>
</svg>
