<svg width="20" height="20" viewBox="0 0 20 20" fill="none" xmlns="http://www.w3.org/2000/svg">
<path fill-rule="evenodd" clip-rule="evenodd" d="M3.125 3.12524C3.125 2.78007 3.40482 2.50024 3.75 2.50024H16.875C17.2065 2.50024 17.5245 2.63194 17.7589 2.86636C17.9933 3.10078 18.125 3.41872 18.125 3.75024V5.07837C18.125 5.72069 17.8698 6.3367 17.4156 6.79089C16.9615 7.24508 16.3454 7.50024 15.7031 7.50024H15V10.6252C15 11.1177 14.903 11.6053 14.7145 12.0603C14.5261 12.5153 14.2499 12.9287 13.9017 13.2769C13.5534 13.6251 13.14 13.9013 12.6851 14.0898C12.2301 14.2782 11.7425 14.3752 11.25 14.3752H6.875C5.88044 14.3752 4.92661 13.9802 4.22335 13.2769C3.52009 12.5736 3.125 11.6198 3.125 10.6252V3.12524ZM15 6.25024H15.7031C16.0139 6.25024 16.312 6.12678 16.5318 5.90701C16.7515 5.68724 16.875 5.38917 16.875 5.07837V3.75024H15V6.25024ZM13.75 3.75024V10.6252C13.75 10.9535 13.6853 11.2786 13.5597 11.582C13.4341 11.8853 13.2499 12.1609 13.0178 12.393C12.7856 12.6252 12.51 12.8093 12.2067 12.9349C11.9034 13.0606 11.5783 13.1252 11.25 13.1252H6.875C6.21196 13.1252 5.57607 12.8619 5.10723 12.393C4.63839 11.9242 4.375 11.2883 4.375 10.6252V3.75024H13.75ZM1.875 16.2502C1.875 15.9051 2.15482 15.6252 2.5 15.6252H15.625C15.9702 15.6252 16.25 15.9051 16.25 16.2502C16.25 16.5954 15.9702 16.8752 15.625 16.8752H2.5C2.15482 16.8752 1.875 16.5954 1.875 16.2502Z" fill="#3031F2"/>
</svg>
