<svg width="48" height="27" viewBox="0 0 48 27" fill="none" xmlns="http://www.w3.org/2000/svg">
<path fill-rule="evenodd" clip-rule="evenodd" d="M6.52334 22.7475L6.51788 22.7397C4.82933 20.3203 4.08594 17.0598 4.08594 13.152C4.08594 10.5302 4.42061 8.22541 5.14781 6.2862L5.1516 6.27609C5.90058 4.31908 7.02089 2.73353 8.5682 1.639C10.1421 0.519348 12.0164 0 14.1019 0C17.2923 0 19.8985 1.18121 21.6696 3.63724C23.3787 5.98612 24.1179 9.23368 24.1179 13.152C24.1179 15.7783 23.7715 18.1025 23.0244 20.0808C22.298 22.0397 21.1937 23.6384 19.6628 24.7733C18.1001 25.9319 16.2123 26.464 14.1019 26.464C10.9126 26.464 8.31197 25.2463 6.52889 22.7553L6.52334 22.7475ZM21.5259 19.52C22.1873 17.7707 22.5179 15.648 22.5179 13.152C22.5179 9.39733 21.8033 6.53867 20.3739 4.576C18.9446 2.592 16.8539 1.6 14.1019 1.6C12.2886 1.6 10.7526 2.048 9.49394 2.944C8.2566 3.81867 7.30727 5.12 6.64594 6.848C6.00594 8.55467 5.68594 10.656 5.68594 13.152C5.68594 16.8853 6.4006 19.776 7.82994 21.824C9.2806 23.8507 11.3713 24.864 14.1019 24.864C15.9366 24.864 17.4726 24.4053 18.7099 23.488C19.9473 22.5707 20.8859 21.248 21.5259 19.52ZM15.4154 18.3075C15.8484 17.4069 16.1499 15.7583 16.1499 13.152C16.1499 10.5298 15.8439 8.93474 15.4281 8.11789C15.2316 7.73196 15.029 7.53059 14.8559 7.41992C14.6884 7.31282 14.4579 7.232 14.1019 7.232C13.746 7.232 13.5154 7.31282 13.348 7.41992C13.1749 7.53059 12.9723 7.73196 12.7758 8.11789C12.3599 8.93474 12.0539 10.5298 12.0539 13.152C12.0539 15.7583 12.3555 17.4069 12.7885 18.3075C12.99 18.7161 13.1974 18.928 13.3699 19.0423C13.5347 19.1516 13.7573 19.232 14.1019 19.232C14.4466 19.232 14.6692 19.1516 14.834 19.0423C15.0065 18.928 15.2139 18.7161 15.4154 18.3075ZM11.3499 19.008C10.7526 17.7707 10.4539 15.8187 10.4539 13.152C10.4539 10.4853 10.7526 8.56533 11.3499 7.392C11.9473 6.21867 12.8646 5.632 14.1019 5.632C15.3393 5.632 16.2566 6.21867 16.8539 7.392C17.4513 8.56533 17.7499 10.4853 17.7499 13.152C17.7499 15.8187 17.4513 17.7707 16.8539 19.008C16.2566 20.224 15.3393 20.832 14.1019 20.832C12.8646 20.832 11.9473 20.224 11.3499 19.008ZM25.8536 25.0998L25.8222 25.0666C25.0884 24.2896 24.8414 23.2833 24.8414 22.304C24.8414 21.5538 25.0327 20.8398 25.4088 20.1903C25.7198 19.653 26.1225 19.1378 26.5931 18.6423C26.5932 18.6422 26.593 18.6424 26.5931 18.6423L32.5998 12.3163C32.6013 12.3146 32.6028 12.313 32.6044 12.3113C33.4469 11.408 33.9773 10.6788 34.2666 10.1162L34.2747 10.1004L34.2833 10.0847C34.5791 9.53962 34.6974 9.05317 34.6974 8.608C34.6974 8.05485 34.5372 7.8461 34.3752 7.7176L34.3645 7.70907L34.3539 7.70036C34.1538 7.53601 33.702 7.328 32.7454 7.328C32.2937 7.328 31.8041 7.39794 31.2715 7.55255L31.2547 7.55745L31.2377 7.56198C30.7592 7.68957 30.2168 7.91593 29.6078 8.2666L29.5918 8.2758L29.5756 8.28463C28.8906 8.65827 28.0949 8.88215 27.2479 8.74842L27.1988 8.74067L27.1504 8.7299C26.4702 8.57876 25.8672 8.24855 25.3741 7.75537L25.3531 7.73443L25.333 7.71272C24.8548 7.19775 24.5399 6.58209 24.3958 5.89762C24.2391 5.15339 24.326 4.41705 24.6148 3.73111C24.946 2.94458 25.5355 2.36685 26.2233 1.95774C27.2994 1.29895 28.4673 0.813745 29.7194 0.499286C30.9521 0.168603 32.186 0 33.4174 0C35.2502 0 36.9012 0.276344 38.3118 0.900804C39.727 1.50593 40.8685 2.43321 41.6559 3.69872C42.4434 4.96433 42.7934 6.44626 42.7934 8.064C42.7934 9.12818 42.6283 10.1697 42.2991 11.1825C41.9675 12.2028 41.456 13.2017 40.789 14.179C40.145 15.1324 39.3105 16.1232 38.3052 17.1509L38.3024 17.1537L36.6367 18.848H40.2334C41.1556 18.848 42.1383 19.0778 42.8835 19.8115C43.6495 20.5433 43.9134 21.5198 43.9134 22.464C43.9134 23.4213 43.6435 24.3887 42.9008 25.1314C42.1536 25.8786 41.1627 26.112 40.2334 26.112H28.7454C27.7458 26.112 26.686 25.886 25.8868 25.1312L25.8536 25.0998ZM41.7694 20.96C41.4281 20.6187 40.9161 20.448 40.2334 20.448H32.8199L37.1614 16.032C38.1214 15.0507 38.8894 14.1333 39.4654 13.28C40.0628 12.4053 40.5001 11.5413 40.7774 10.688C41.0548 9.83467 41.1934 8.96 41.1934 8.064C41.1934 6.67733 40.8948 5.504 40.2974 4.544C39.7001 3.584 38.8254 2.85867 37.6734 2.368C36.5214 1.856 35.1028 1.6 33.4174 1.6C32.3294 1.6 31.2308 1.74933 30.1214 2.048C29.0121 2.32533 27.9881 2.752 27.0494 3.328C26.5801 3.60533 26.2601 3.94667 26.0894 4.352C25.9188 4.75733 25.8761 5.16267 25.9614 5.568C26.0468 5.97333 26.2281 6.32533 26.5054 6.624C26.7828 6.90133 27.1134 7.08267 27.4974 7.168C27.9028 7.232 28.3401 7.136 28.8094 6.88C29.5134 6.47467 30.1854 6.18667 30.8254 6.016C31.4868 5.824 32.1268 5.728 32.7454 5.728C33.8974 5.728 34.7721 5.97333 35.3694 6.464C35.9881 6.95467 36.2974 7.66933 36.2974 8.608C36.2974 9.35467 36.0948 10.1013 35.6894 10.848C35.3054 11.5947 34.6654 12.448 33.7694 13.408L27.7534 19.744C27.3481 20.1707 27.0281 20.5867 26.7934 20.992C26.5588 21.3973 26.4414 21.8347 26.4414 22.304C26.4414 23.0293 26.6228 23.584 26.9854 23.968C27.3694 24.3307 27.9561 24.512 28.7454 24.512H40.2334C40.9161 24.512 41.4281 24.3413 41.7694 24C42.1321 23.6373 42.3134 23.1253 42.3134 22.464C42.3134 21.8027 42.1321 21.3013 41.7694 20.96Z" fill="#AAAAFF"/>
</svg>
