<svg width="20" height="20" viewBox="0 0 20 20" fill="none" xmlns="http://www.w3.org/2000/svg">
<path d="M17.1953 5.04724L11.2578 1.59021C10.4844 1.13708 9.51953 1.13708 8.74609 1.59021L2.80859 5.04724C2.23438 5.37927 1.875 6.00037 1.875 6.66443V13.3363C1.875 14.0004 2.23047 14.6215 2.80469 14.9535L8.74219 18.4105C9.11328 18.6254 9.52344 18.7386 9.94141 18.7465C9.96094 18.7465 9.98047 18.7504 10 18.7504C10.0195 18.7504 10.0391 18.7504 10.0586 18.7465C10.4727 18.7386 10.8867 18.6254 11.2578 18.4105L17.1953 14.9535C17.7695 14.6176 18.125 14.0004 18.125 13.3363V6.66443C18.125 6.00037 17.7656 5.37927 17.1953 5.04724ZM9.37109 2.67224C9.56641 2.55896 9.78125 2.50427 10 2.50427C10.2188 2.50427 10.4336 2.55896 10.6289 2.67224L16.2227 5.93005L10 9.5863L3.77734 5.92615L9.37109 2.67224ZM3.43359 13.8754C3.24219 13.7621 3.125 13.5551 3.125 13.3363V6.99255L9.375 10.6683V17.3285C9.375 17.3285 9.375 17.3285 9.37109 17.3285L3.43359 13.8754ZM16.5664 13.8754L10.6289 17.3324H10.625V10.6683L16.875 6.99255V13.3324C16.875 13.5551 16.7578 13.7621 16.5664 13.8754Z" fill="#3031F2"/>
</svg>
