<svg width="20" height="20" viewBox="0 0 20 20" fill="none" xmlns="http://www.w3.org/2000/svg">
<g clip-path="url(#clip0_266_1817)">
<path d="M8.12502 20.0003C7.98831 20.0003 7.85549 19.9729 7.73049 19.9143C7.49221 19.8089 7.30862 19.6175 7.21487 19.3714L5.55862 15.0667L1.25002 13.4104C0.992212 13.3128 0.789087 13.1057 0.687524 12.8479C0.496118 12.344 0.746118 11.7776 1.25002 11.5862L5.55471 9.92996L7.21487 5.62527C7.31252 5.36746 7.51956 5.16434 7.77737 5.06277C8.01956 4.96902 8.28518 4.97684 8.52346 5.08231C8.76174 5.18777 8.94534 5.37918 9.03909 5.62527L10.6953 9.92996L15 11.5901C15.2578 11.6878 15.461 11.8948 15.5625 12.1526C15.7578 12.6565 15.5039 13.2229 15 13.4143L10.6953 15.0706L9.03518 19.3753C8.93752 19.6331 8.73049 19.8362 8.47268 19.9378C8.36331 19.9807 8.24221 20.0003 8.12502 20.0003ZM2.36331 12.5003L6.12112 13.9456C6.37893 14.0432 6.58206 14.2503 6.68362 14.5081L8.12893 18.2659L9.57424 14.5081C9.6719 14.2503 9.87893 14.0471 10.1367 13.9456L13.8946 12.5003L10.1367 11.055C9.87893 10.9573 9.67581 10.7503 9.57424 10.4925L8.12893 6.73465L6.68362 10.4925C6.58596 10.7503 6.37893 10.9534 6.12112 11.055L2.36331 12.5003Z" fill="#3031F2"/>
<path d="M3.4375 6.87524C3.17969 6.87524 2.94531 6.71509 2.85547 6.4729L2.17578 4.69946L0.402344 4.01978C0.160156 3.92993 0 3.69556 0 3.43774C0 3.17993 0.160156 2.94556 0.402344 2.85571L2.17578 2.17603L2.85547 0.402588C2.94531 0.1604 3.17969 0.000244141 3.4375 0.000244141C3.69531 0.000244141 3.92969 0.1604 4.01953 0.402588L4.69922 2.17603L6.47266 2.85571C6.71484 2.94946 6.875 3.17993 6.875 3.43774C6.875 3.69556 6.71484 3.92993 6.47266 4.01978L4.69922 4.69946L4.01953 6.4729C3.92969 6.71509 3.69531 6.87524 3.4375 6.87524ZM2.36719 3.43774L2.88281 3.63696C3.04688 3.69946 3.17969 3.83228 3.24219 3.99634L3.44141 4.51196L3.64062 3.99634C3.70312 3.83228 3.83594 3.69946 4 3.63696L4.51562 3.43774L4 3.23853C3.83594 3.17603 3.70312 3.04321 3.64062 2.87915L3.4375 2.36743L3.23828 2.88306C3.17578 3.04712 3.04297 3.17993 2.87891 3.24243L2.36719 3.43774Z" fill="#3031F2"/>
<path d="M15.625 10.0002C15.3672 10.0002 15.1328 9.84009 15.043 9.5979L14.1016 7.14868L11.6523 6.20728C11.4102 6.11353 11.25 5.88306 11.25 5.62524C11.25 5.36743 11.4102 5.13306 11.6523 5.04321L14.1016 4.10181L15.043 1.65259C15.1367 1.4104 15.3672 1.25024 15.625 1.25024C15.8828 1.25024 16.1172 1.4104 16.207 1.65259L17.1484 4.10181L19.5977 5.04321C19.8398 5.13696 20 5.36743 20 5.62524C20 5.88306 19.8398 6.11743 19.5977 6.20728L17.1484 7.14868L16.207 9.5979C16.1172 9.84009 15.8828 10.0002 15.625 10.0002ZM13.6172 5.62524L14.8086 6.08228C14.9727 6.14478 15.1055 6.27759 15.168 6.44165L15.625 7.63306L16.082 6.44165C16.1445 6.27759 16.2773 6.14478 16.4414 6.08228L17.6328 5.62524L16.4414 5.16821C16.2773 5.10571 16.1445 4.9729 16.082 4.80884L15.625 3.61743L15.168 4.80884C15.1055 4.9729 14.9727 5.10571 14.8086 5.16821L13.6172 5.62524Z" fill="#3031F2"/>
</g>
<defs>
<clipPath id="clip0_266_1817">
<rect width="20" height="20" fill="white" transform="translate(0 0.000244141)"/>
</clipPath>
</defs>
</svg>
