<svg width="48" height="27" viewBox="0 0 48 27" fill="none" xmlns="http://www.w3.org/2000/svg">
<path fill-rule="evenodd" clip-rule="evenodd" d="M6.0917 22.7475L6.08624 22.7397C4.39769 20.3203 3.6543 17.0598 3.6543 13.152C3.6543 10.5302 3.98897 8.22541 4.71617 6.2862L4.71996 6.27609C5.46894 4.31908 6.58925 2.73353 8.13656 1.639C9.71045 0.519347 11.5848 0 13.6703 0C16.8608 0 19.4671 1.18129 21.2381 3.63746C22.9472 5.98633 23.6863 9.23381 23.6863 13.152C23.6863 14.5034 23.5946 15.7748 23.4037 16.9602C23.4619 16.7687 23.5314 16.5797 23.6112 16.3937C23.8714 15.7864 24.2897 15.1248 24.8031 14.4305L33.0707 2.3963L33.0729 2.39302C33.5338 1.7161 34.0921 1.13774 34.7676 0.719576C35.492 0.271175 36.301 0.0639992 37.1458 0.0639992C38.1777 0.0639992 39.1572 0.397527 39.9099 1.17296C40.744 1.98503 41.0178 3.0872 41.0178 4.16V14.9915C41.8218 15.0528 42.6314 15.3049 43.2797 15.9055C44.074 16.618 44.3458 17.5933 44.3458 18.528C44.3458 19.4665 44.0613 20.4049 43.3155 21.1169C42.6662 21.7557 41.8284 22.0054 41.0178 22.0651V22.304C41.0178 23.3824 40.731 24.4601 39.9236 25.2768C39.1331 26.0994 38.0777 26.4 37.0178 26.4C35.9432 26.4 34.9036 26.0932 34.0903 25.3186L34.0762 25.3052L34.0624 25.2914C33.244 24.4729 32.9538 23.3888 32.9538 22.304V22.08H27.6831H27.3858L27.0658 22.0725C26.1688 22.0296 25.295 21.7989 24.5567 21.262L24.5379 21.2483L24.5195 21.2341C23.5702 20.5005 23.1938 19.4341 23.1938 18.336C23.1938 18.222 23.1982 18.1087 23.2067 17.996C23.045 18.728 22.841 19.4235 22.5928 20.0808C21.8664 22.0397 20.762 23.6384 19.2312 24.7733C17.6685 25.9319 15.7806 26.464 13.6703 26.464C10.481 26.464 7.88033 25.2463 6.09725 22.7553L6.0917 22.7475ZM27.0658 20.4701C27.1694 20.4767 27.276 20.48 27.3858 20.48H34.5538V22.304C34.5538 23.1147 34.7671 23.7333 35.1938 24.16C35.6418 24.5867 36.2498 24.8 37.0178 24.8C37.7858 24.8 38.3725 24.5867 38.7778 24.16C39.2045 23.7333 39.4178 23.1147 39.4178 22.304V20.48H40.6018C41.3271 20.48 41.8605 20.3093 42.2018 19.968C42.5645 19.6267 42.7458 19.1467 42.7458 18.528C42.7458 17.888 42.5645 17.408 42.2018 17.088C41.8391 16.7467 41.3058 16.576 40.6018 16.576H39.4178V4.16C39.4178 3.328 39.2045 2.70933 38.7778 2.304C38.3725 1.87733 37.8285 1.664 37.1458 1.664C36.5698 1.664 36.0578 1.80267 35.6098 2.08C35.1618 2.35733 34.7565 2.76267 34.3938 3.296L26.1058 15.36C25.6151 16.0213 25.2738 16.576 25.0818 17.024C24.8898 17.472 24.7938 17.9093 24.7938 18.336C24.7938 19.0613 25.0285 19.6053 25.4978 19.968C25.9019 20.2619 26.4245 20.4292 27.0658 20.4701ZM34.5538 16.576V9.13968L29.4933 16.576H34.5538ZM32.5175 14.976H32.9538V14.3348L32.5175 14.976ZM19.9423 4.576C18.513 2.592 16.4223 1.6 13.6703 1.6C11.857 1.6 10.321 2.048 9.0623 2.944C7.82496 3.81867 6.87563 5.12 6.2143 6.848C5.5743 8.55467 5.2543 10.656 5.2543 13.152C5.2543 16.8853 5.96896 19.776 7.3983 21.824C8.84896 23.8507 10.9396 24.864 13.6703 24.864C15.505 24.864 17.041 24.4053 18.2783 23.488C19.5156 22.5707 20.4543 21.248 21.0943 19.52C21.7556 17.7707 22.0863 15.648 22.0863 13.152C22.0863 9.39733 21.3716 6.53867 19.9423 4.576ZM14.9838 18.3075C15.4168 17.4069 15.7183 15.7583 15.7183 13.152C15.7183 10.5298 15.4123 8.93474 14.9964 8.11789L16.4223 7.392C17.0196 8.56533 17.3183 10.4853 17.3183 13.152C17.3183 15.8187 17.0196 17.7707 16.4223 19.008C15.825 20.224 14.9076 20.832 13.6703 20.832C12.433 20.832 11.5156 20.224 10.9183 19.008C10.321 17.7707 10.0223 15.8187 10.0223 13.152C10.0223 10.4853 10.321 8.56533 10.9183 7.392C11.5156 6.21867 12.433 5.632 13.6703 5.632C14.9076 5.632 15.825 6.21867 16.4223 7.392L14.9964 8.11789C14.8 7.73196 14.5973 7.53059 14.4243 7.41992C14.2568 7.31282 14.0262 7.232 13.6703 7.232C13.3144 7.232 13.0838 7.31282 12.9163 7.41992C12.7433 7.53059 12.5406 7.73196 12.3442 8.11789C11.9283 8.93474 11.6223 10.5298 11.6223 13.152C11.6223 15.7583 11.9238 17.4068 12.3568 18.3075C12.5583 18.7161 12.7657 18.928 12.9382 19.0423C13.103 19.1516 13.3256 19.232 13.6703 19.232C14.015 19.232 14.2376 19.1516 14.4024 19.0423C14.5749 18.928 14.7822 18.7161 14.9838 18.3075Z" fill="#AAAAFF"/>
</svg>
