<svg width="40" height="40" viewBox="0 0 40 40" fill="none" xmlns="http://www.w3.org/2000/svg">
<path fill-rule="evenodd" clip-rule="evenodd" d="M15.7891 13.0604C15.7891 7.21079 20.5394 2.50024 26.5625 2.50024C32.5546 2.50024 37.5 7.16499 37.5 13.0448C37.5 18.9215 32.5578 23.6073 26.5625 23.6073C25.2487 23.6073 24.1413 23.4392 23.0017 23.0319C22.9622 23.0596 22.9184 23.0899 22.8693 23.1234C22.6313 23.2857 22.2193 23.5541 21.7407 23.6572C21.4852 23.7124 21.2508 23.689 21.1428 23.6763C21.0045 23.66 20.8652 23.6327 20.7431 23.6056C20.5062 23.553 20.2365 23.4785 20.0054 23.4148L19.9877 23.4099C19.8594 23.3744 19.7419 23.3421 19.6354 23.314C19.669 23.3884 19.7087 23.4717 19.7547 23.5658C19.7712 23.5996 19.7893 23.6363 19.8085 23.6751C19.8976 23.8552 20.0094 24.0814 20.0915 24.2831C20.144 24.4119 20.2031 24.5745 20.2421 24.7518C20.2787 24.9179 20.3189 25.1874 20.2538 25.4928C20.1772 25.8522 19.9871 26.173 19.8393 26.3892C19.6712 26.6351 19.4609 26.8843 19.2288 27.112C18.8176 27.5153 18.1204 28.065 17.2931 28.1614C16.7726 28.222 16.3128 28.0642 16.0398 27.9559C15.9331 27.9136 15.8293 27.8679 15.736 27.8253C15.7417 27.8389 15.7473 27.8524 15.7528 27.8659C15.843 28.0855 15.993 28.4777 15.9842 28.9269C15.9667 29.9906 15.3435 30.6353 14.905 31.0392C14.6625 31.2659 14.3518 31.5476 13.9683 31.7548C13.5426 31.9849 13.0814 32.0979 12.5553 32.0916L12.5545 32.0915C12.1435 32.0863 11.701 31.991 11.4203 31.9305C11.3853 31.9229 11.3527 31.9159 11.3231 31.9097C11.159 31.8752 11.0489 31.8546 10.9651 31.8449C10.9591 31.8442 10.9536 31.8436 10.9485 31.8431C10.9491 31.8478 10.9497 31.8526 10.9503 31.8575C10.9663 31.9869 10.9815 32.0707 11.0007 32.1762C11.0189 32.2766 11.0408 32.3968 11.0703 32.5948C11.1442 33.0905 11.307 34.2724 10.4382 35.1242C10.271 35.2889 10.1409 35.4259 9.96896 35.6071C9.90729 35.6721 9.84022 35.7427 9.76412 35.8224C9.48175 36.1179 9.1099 36.4997 8.49718 37.0965L8.494 37.0995L8.49139 37.1021C8.00117 37.5734 7.4038 37.5163 7.15718 37.4684C6.87839 37.4143 6.62949 37.2985 6.45046 37.2032C6.07718 37.0045 5.67697 36.7131 5.32668 36.4352C4.61412 35.87 3.89235 35.1866 3.5967 34.8776C3.14462 34.4049 2.5 33.4695 2.5 32.3495L2.5 32.3487C2.50025 31.9521 2.58396 31.5601 2.74568 31.198C2.90346 30.8448 3.13205 30.5278 3.41719 30.2666C3.59009 30.0959 4.24471 29.3599 5.25067 28.2029C6.25029 27.0532 7.5422 25.5519 8.91517 23.9501C11.4417 21.0023 14.2372 17.7202 15.9794 15.6747C15.7885 14.7838 15.7888 13.8986 15.789 13.1424C15.7891 13.1149 15.7891 13.0876 15.7891 13.0604ZM10.9403 31.7249C10.9403 31.7249 10.9403 31.7258 10.9402 31.7277C10.9402 31.7258 10.9403 31.7249 10.9403 31.7249ZM26.5625 5.00024C21.8825 5.00024 18.2891 8.62876 18.2891 13.0604C18.2891 14.117 18.301 14.8838 18.5401 15.572C18.6856 15.9908 18.5984 16.4553 18.311 16.7928C18.1839 16.942 18.0489 17.1004 17.9069 17.2673C16.1667 19.3104 13.3544 22.6122 10.8133 25.577C9.43925 27.1802 8.14278 28.6868 7.13727 29.8432C6.15972 30.9675 5.39883 31.8294 5.14016 32.0783C5.12969 32.0884 5.11904 32.0983 5.10822 32.108C5.07419 32.1385 5.04697 32.1759 5.02832 32.2176C5.00973 32.2592 5.00008 32.3043 5 32.3499C5.00009 32.433 5.0281 32.5652 5.11337 32.7352C5.19746 32.9028 5.31003 33.052 5.4033 33.1495C5.62327 33.3795 6.26088 33.9852 6.88035 34.4766C7.02903 34.5945 7.16511 34.6966 7.28527 34.781C7.57512 34.4917 7.78475 34.2751 7.95658 34.0953C8.01831 34.0307 8.07726 33.9686 8.1349 33.9078C8.29911 33.7348 8.45259 33.573 8.62881 33.3977C8.63286 33.3453 8.63556 33.2178 8.59765 32.9635C8.59095 32.9186 8.57689 32.836 8.56022 32.7381C8.52831 32.5507 8.48683 32.3072 8.46915 32.1641C8.43916 31.9214 8.3847 31.414 8.59326 30.9274C8.77107 30.5125 9.0169 30.1156 9.41417 29.8201C9.80012 29.533 10.2074 29.4375 10.4612 29.3841C10.7662 29.3199 11.0545 29.3385 11.2532 29.3616C11.4618 29.3858 11.671 29.4282 11.837 29.4631C11.8594 29.4678 11.8812 29.4723 11.9023 29.4768C12.2526 29.5505 12.4396 29.5898 12.5857 29.5917C12.7077 29.5932 12.7465 29.5734 12.7797 29.5554C12.8533 29.5157 12.9593 29.4359 13.2007 29.2101C13.2033 29.2077 13.2058 29.2053 13.2084 29.203C13.3827 29.0426 13.4473 28.9623 13.4748 28.9178C13.4758 28.9163 13.4766 28.9149 13.4774 28.9135C13.4701 28.8919 13.4584 28.8598 13.4403 28.8157C13.4141 28.752 13.3856 28.6881 13.3476 28.6031C13.3398 28.5858 13.3317 28.5677 13.3232 28.5485C13.277 28.445 13.2195 28.3145 13.1667 28.1759C13.0663 27.9122 12.9379 27.508 12.9646 27.043C12.9942 26.5247 13.2093 26.0359 13.6176 25.6361C14.0779 25.1852 14.6349 25.0194 15.1653 25.0413C15.6277 25.0604 16.0367 25.2209 16.2977 25.3335C16.414 25.3836 16.5317 25.4385 16.6291 25.4839C16.6472 25.4924 16.6645 25.5005 16.6811 25.5082C16.7967 25.5619 16.884 25.6013 16.9612 25.6319C16.9923 25.6443 17.0175 25.6533 17.0373 25.66C17.0578 25.6501 17.0849 25.6358 17.1187 25.6153C17.2262 25.55 17.3522 25.4508 17.4782 25.3272C17.5674 25.2397 17.6453 25.1511 17.7076 25.071C17.6742 25.0001 17.6348 24.9201 17.5875 24.824C17.5634 24.7753 17.5374 24.7224 17.509 24.6644C17.3977 24.4369 17.2531 24.1338 17.1516 23.8217C17.0577 23.5332 16.9404 23.0648 17.0539 22.5598L17.0547 22.5558C17.0552 22.5538 17.0557 22.5518 17.0561 22.5498C17.1227 22.2644 17.267 22.0333 17.3508 21.9098C17.4541 21.7576 17.5776 21.6086 17.7082 21.4742C17.9178 21.2587 18.3433 20.8737 18.8985 20.753C19.1546 20.6973 19.3897 20.7209 19.4978 20.7336C19.6361 20.7498 19.7754 20.7771 19.8975 20.8042C20.1344 20.8569 20.4041 20.9313 20.6352 20.9951L20.6529 21C20.9063 21.0699 21.117 21.1277 21.2852 21.1651C21.2873 21.1656 21.2895 21.166 21.2916 21.1665C21.3374 21.1396 21.393 21.1042 21.4607 21.058C21.5395 21.0043 21.6158 20.9493 21.7051 20.8849C21.7294 20.8674 21.7546 20.8492 21.7811 20.8302C21.8943 20.7489 22.0332 20.6502 22.1752 20.5618C22.5233 20.3451 22.9555 20.3128 23.3319 20.4755C24.37 20.9242 25.3004 21.1073 26.5625 21.1073C31.2703 21.1073 35 17.4493 35 13.0448C35 8.64331 31.2735 5.00024 26.5625 5.00024ZM21.4347 21.1934C21.4338 21.1933 21.4328 21.1931 21.4318 21.193C21.4499 21.194 21.4524 21.1954 21.4347 21.1934ZM28.75 10.0002C28.5028 10.0002 28.2611 10.0736 28.0555 10.2109C27.85 10.3483 27.6898 10.5435 27.5951 10.7719C27.5005 11.0003 27.4758 11.2516 27.524 11.4941C27.5723 11.7366 27.6913 11.9593 27.8661 12.1341C28.0409 12.3089 28.2637 12.428 28.5061 12.4762C28.7486 12.5245 28.9999 12.4997 29.2284 12.4051C29.4568 12.3105 29.652 12.1503 29.7893 11.9447C29.9267 11.7391 30 11.4975 30 11.2502C30 10.9187 29.8683 10.6008 29.6339 10.3664C29.3995 10.1319 29.0815 10.0002 28.75 10.0002ZM26.6666 8.13223C27.2833 7.72018 28.0083 7.50024 28.75 7.50024C29.7446 7.50024 30.6984 7.89533 31.4017 8.59859C32.1049 9.30185 32.5 10.2557 32.5 11.2502C32.5 11.9919 32.2801 12.7169 31.868 13.3336C31.456 13.9503 30.8703 14.431 30.1851 14.7148C29.4998 14.9986 28.7458 15.0729 28.0184 14.9282C27.291 14.7835 26.6228 14.4263 26.0983 13.9019C25.5739 13.3774 25.2167 12.7093 25.0721 11.9818C24.9274 11.2544 25.0016 10.5004 25.2855 9.81518C25.5693 9.12996 26.0499 8.54429 26.6666 8.13223Z" fill="#3031F2"/>
</svg>
