<svg width="48" height="48" viewBox="0 0 48 48" fill="none" xmlns="http://www.w3.org/2000/svg">
<path fill-rule="evenodd" clip-rule="evenodd" d="M6.41201 33.7475L6.40656 33.7397C4.718 31.3203 3.97461 28.0598 3.97461 24.152C3.97461 21.5302 4.30928 19.2254 5.03648 17.2862L5.04027 17.2761C5.78926 15.3191 6.90956 13.7335 8.45687 12.639C10.0308 11.5193 11.9051 11 13.9906 11C17.181 11 19.7872 12.1812 21.5583 14.6372C23.2674 16.9861 24.0066 20.2337 24.0066 24.152C24.0066 26.7783 23.6601 29.1025 22.9131 31.0808C22.1867 33.0397 21.0823 34.6384 19.5515 35.7733C17.9888 36.9319 16.1009 37.464 13.9906 37.464C10.8013 37.464 8.20064 36.2463 6.41756 33.7553L6.41201 33.7475ZM21.4146 30.52C22.0759 28.7707 22.4066 26.648 22.4066 24.152C22.4066 20.3973 21.6919 17.5387 20.2626 15.576C18.8333 13.592 16.7426 12.6 13.9906 12.6C12.1773 12.6 10.6413 13.048 9.38261 13.944C8.14528 14.8187 7.19594 16.12 6.53461 17.848C5.89461 19.5547 5.57461 21.656 5.57461 24.152C5.57461 27.8853 6.28928 30.776 7.71861 32.824C9.16928 34.8507 11.2599 35.864 13.9906 35.864C15.8253 35.864 17.3613 35.4053 18.5986 34.488C19.8359 33.5707 20.7746 32.248 21.4146 30.52ZM15.3041 29.3075C15.7371 28.4069 16.0386 26.7583 16.0386 24.152C16.0386 21.5298 15.7326 19.9347 15.3167 19.1179C15.1203 18.732 14.9176 18.5306 14.7446 18.4199C14.5771 18.3128 14.3465 18.232 13.9906 18.232C13.6347 18.232 13.4041 18.3128 13.2367 18.4199C13.0636 18.5306 12.8609 18.732 12.6645 19.1179C12.2486 19.9347 11.9426 21.5298 11.9426 24.152C11.9426 26.7583 12.2441 28.4069 12.6771 29.3075C12.8787 29.7161 13.086 29.928 13.2585 30.0423C13.4234 30.1516 13.6459 30.232 13.9906 30.232C14.3353 30.232 14.5579 30.1516 14.7227 30.0423C14.8952 29.928 15.1026 29.7161 15.3041 29.3075ZM11.2386 30.008C10.6413 28.7707 10.3426 26.8187 10.3426 24.152C10.3426 21.4853 10.6413 19.5653 11.2386 18.392C11.8359 17.2187 12.7533 16.632 13.9906 16.632C15.2279 16.632 16.1453 17.2187 16.7426 18.392C17.3399 19.5653 17.6386 21.4853 17.6386 24.152C17.6386 26.8187 17.3399 28.7707 16.7426 30.008C16.1453 31.224 15.2279 31.832 13.9906 31.832C12.7533 31.832 11.8359 31.224 11.2386 30.008ZM37.4341 31.448H40.3461C41.0074 31.448 41.5194 31.6187 41.8821 31.96C42.2448 32.3013 42.4261 32.8027 42.4261 33.464C42.4261 34.1253 42.2448 34.6373 41.8821 35C41.5194 35.3413 41.0074 35.512 40.3461 35.512H29.2421C28.5594 35.512 28.0368 35.3307 27.6741 34.968C27.3114 34.6053 27.1301 34.104 27.1301 33.464C27.1301 32.8027 27.3114 32.3013 27.6741 31.96C28.0368 31.6187 28.5594 31.448 29.2421 31.448H32.4741V18.44L30.1381 19.864C29.6474 20.1627 29.1888 20.28 28.7621 20.216C28.3568 20.152 28.0048 19.9707 27.7061 19.672C27.4074 19.3733 27.2048 19.0213 27.0981 18.616C27.0128 18.1893 27.0554 17.7733 27.2261 17.368C27.3968 16.9413 27.7168 16.5787 28.1861 16.28L32.6341 13.592C33.0821 13.3147 33.5301 13.0907 33.9781 12.92C34.4474 12.7493 34.9061 12.664 35.3541 12.664C35.9941 12.664 36.4954 12.8347 36.8581 13.176C37.2421 13.496 37.4341 13.9973 37.4341 14.68V31.448ZM39.0341 16.3149V15.416V14.68C39.0341 13.7199 38.7599 12.7013 37.9199 11.9786C37.1884 11.3095 36.2667 11.064 35.3541 11.064C34.6995 11.064 34.0559 11.1892 33.4313 11.4163L33.4199 11.4205L33.4085 11.4248C32.8594 11.634 32.3231 11.9034 31.7995 12.2269L27.3427 14.9202L27.3271 14.9301C26.6396 15.3676 26.0666 15.9681 25.746 16.7602C25.457 17.4534 25.3813 18.1902 25.5292 18.9298L25.5386 18.9768L25.5508 19.0232C25.7301 19.7047 26.0774 20.306 26.5747 20.8034C27.105 21.3336 27.7629 21.6781 28.5126 21.7964L28.5248 21.7983C29.3887 21.9279 30.1905 21.6831 30.8741 21.2877V29.848H29.2421C28.305 29.848 27.3323 30.0845 26.5775 30.7949C25.798 31.5285 25.5301 32.5126 25.5301 33.464C25.5301 34.4172 25.8096 35.3663 26.5427 36.0994C27.2945 36.8512 28.2803 37.112 29.2421 37.112H40.3461C41.278 37.112 42.2326 36.8673 42.9787 36.1651L42.9963 36.1485L43.0135 36.1314C43.7562 35.3887 44.0261 34.4213 44.0261 33.464C44.0261 32.5126 43.7582 31.5285 42.9787 30.7949C42.2326 30.0927 41.278 29.848 40.3461 29.848H39.0341V16.3149Z" fill="#AAAAFF"/>
</svg>
