<svg width="40" height="40" viewBox="0 0 40 40" fill="none" xmlns="http://www.w3.org/2000/svg">
<path d="M23.125 20.0002C24.1605 20.0002 25 19.1608 25 18.1252C25 17.0897 24.1605 16.2502 23.125 16.2502C22.0895 16.2502 21.25 17.0897 21.25 18.1252C21.25 19.1608 22.0895 20.0002 23.125 20.0002Z" fill="#3031F2"/>
<path d="M29.375 20.0002C30.4105 20.0002 31.25 19.1608 31.25 18.1252C31.25 17.0897 30.4105 16.2502 29.375 16.2502C28.3395 16.2502 27.5 17.0897 27.5 18.1252C27.5 19.1608 28.3395 20.0002 29.375 20.0002Z" fill="#3031F2"/>
<path d="M23.125 26.2502C24.1605 26.2502 25 25.4108 25 24.3752C25 23.3397 24.1605 22.5002 23.125 22.5002C22.0895 22.5002 21.25 23.3397 21.25 24.3752C21.25 25.4108 22.0895 26.2502 23.125 26.2502Z" fill="#3031F2"/>
<path d="M29.375 26.2502C30.4105 26.2502 31.25 25.4108 31.25 24.3752C31.25 23.3397 30.4105 22.5002 29.375 22.5002C28.3395 22.5002 27.5 23.3397 27.5 24.3752C27.5 25.4108 28.3395 26.2502 29.375 26.2502Z" fill="#3031F2"/>
<path d="M10.625 26.2502C11.6605 26.2502 12.5 25.4108 12.5 24.3752C12.5 23.3397 11.6605 22.5002 10.625 22.5002C9.58947 22.5002 8.75 23.3397 8.75 24.3752C8.75 25.4108 9.58947 26.2502 10.625 26.2502Z" fill="#3031F2"/>
<path d="M16.875 26.2502C17.9105 26.2502 18.75 25.4108 18.75 24.3752C18.75 23.3397 17.9105 22.5002 16.875 22.5002C15.8395 22.5002 15 23.3397 15 24.3752C15 25.4108 15.8395 26.2502 16.875 26.2502Z" fill="#3031F2"/>
<path d="M10.625 32.5002C11.6605 32.5002 12.5 31.6608 12.5 30.6252C12.5 29.5897 11.6605 28.7502 10.625 28.7502C9.58947 28.7502 8.75 29.5897 8.75 30.6252C8.75 31.6608 9.58947 32.5002 10.625 32.5002Z" fill="#3031F2"/>
<path d="M16.875 32.5002C17.9105 32.5002 18.75 31.6608 18.75 30.6252C18.75 29.5897 17.9105 28.7502 16.875 28.7502C15.8395 28.7502 15 29.5897 15 30.6252C15 31.6608 15.8395 32.5002 16.875 32.5002Z" fill="#3031F2"/>
<path d="M23.125 32.5002C24.1605 32.5002 25 31.6608 25 30.6252C25 29.5897 24.1605 28.7502 23.125 28.7502C22.0895 28.7502 21.25 29.5897 21.25 30.6252C21.25 31.6608 22.0895 32.5002 23.125 32.5002Z" fill="#3031F2"/>
<path fill-rule="evenodd" clip-rule="evenodd" d="M11.25 3.75024C11.25 3.05989 10.6904 2.50024 10 2.50024C9.30964 2.50024 8.75 3.05989 8.75 3.75024V5.00024H7.5C4.73858 5.00024 2.5 7.23882 2.5 10.0002V32.5002C2.5 35.2617 4.73858 37.5002 7.5 37.5002H32.5C35.2614 37.5002 37.5 35.2617 37.5 32.5002V10.0002C37.5 7.23882 35.2614 5.00024 32.5 5.00024H31.25V3.75024C31.25 3.05989 30.6904 2.50024 30 2.50024C29.3096 2.50024 28.75 3.05989 28.75 3.75024V5.00024H11.25V3.75024ZM32.5 7.50024C33.8807 7.50024 35 8.61953 35 10.0002V11.2502H5V10.0002C5 8.61953 6.11929 7.50024 7.5 7.50024H32.5ZM5 13.7502V32.5002C5 33.881 6.11929 35.0002 7.5 35.0002H32.5C33.8807 35.0002 35 33.881 35 32.5002V13.7502H5Z" fill="#3031F2"/>
</svg>
