<svg width="40" height="40" viewBox="0 0 40 40" fill="none" xmlns="http://www.w3.org/2000/svg">
<path fill-rule="evenodd" clip-rule="evenodd" d="M6.25 3.75024C5.91848 3.75024 5.60054 3.88194 5.36612 4.11636C5.1317 4.35078 5 4.66872 5 5.00024V36.2502H12.5V32.5002C12.5 31.8099 13.0596 31.2502 13.75 31.2502C14.4404 31.2502 15 31.8099 15 32.5002V36.2502H22.5V5.00024C22.5 4.66872 22.3683 4.35078 22.1339 4.11636C21.8995 3.88194 21.5815 3.75024 21.25 3.75024H6.25ZM25 16.2502V36.2502H35V17.5002C35 17.1687 34.8683 16.8508 34.6339 16.6164C34.3995 16.3819 34.0815 16.2502 33.75 16.2502H25ZM23.602 38.7416C23.6505 38.7473 23.6999 38.7502 23.75 38.7502H36.25C36.9404 38.7502 37.5 38.1906 37.5 37.5002V17.5002C37.5 16.5057 37.1049 15.5519 36.4016 14.8486C35.6984 14.1453 34.7446 13.7502 33.75 13.7502H25V5.00024C25 4.00568 24.6049 3.05185 23.9017 2.34859C23.1984 1.64533 22.2446 1.25024 21.25 1.25024H6.25C5.25544 1.25024 4.30161 1.64533 3.59835 2.34859C2.89509 3.05186 2.5 4.00568 2.5 5.00024V37.5002C2.5 38.1906 3.05964 38.7502 3.75 38.7502H23.4375C23.4927 38.7502 23.5476 38.7473 23.602 38.7416Z" fill="#3031F2"/>
<path d="M7.6625 33.7401C7.40362 33.7739 7.14063 33.7259 6.91045 33.6027C6.68027 33.4794 6.49445 33.2872 6.37907 33.053C6.2637 32.8188 6.22455 32.5544 6.26714 32.2968C6.30972 32.0392 6.4319 31.8014 6.61652 31.6168C6.80113 31.4321 7.03893 31.31 7.29652 31.2674C7.55411 31.2248 7.81857 31.2639 8.05278 31.3793C8.28699 31.4947 8.4792 31.6805 8.60242 31.9107C8.72565 32.1409 8.7737 32.4039 8.73984 32.6627C8.70411 32.9359 8.57911 33.1897 8.38428 33.3845C8.18945 33.5794 7.93571 33.7044 7.6625 33.7401Z" fill="#3031F2"/>
<path d="M7.6625 27.4901C7.40362 27.5239 7.14063 27.4759 6.91045 27.3527C6.68027 27.2294 6.49445 27.0372 6.37907 26.803C6.2637 26.5688 6.22455 26.3044 6.26714 26.0468C6.30972 25.7892 6.4319 25.5514 6.61652 25.3668C6.80113 25.1821 7.03893 25.06 7.29652 25.0174C7.55411 24.9748 7.81857 25.0139 8.05278 25.1293C8.28699 25.2447 8.4792 25.4305 8.60242 25.6607C8.72565 25.8909 8.7737 26.1539 8.73984 26.4127C8.70411 26.6859 8.57911 26.9397 8.38428 27.1345C8.18945 27.3294 7.93571 27.4544 7.6625 27.4901Z" fill="#3031F2"/>
<path d="M7.6625 21.2401C7.40362 21.2739 7.14063 21.2259 6.91045 21.1027C6.68027 20.9794 6.49445 20.7872 6.37907 20.553C6.2637 20.3188 6.22455 20.0544 6.26714 19.7968C6.30972 19.5392 6.4319 19.3014 6.61652 19.1168C6.80113 18.9321 7.03893 18.81 7.29652 18.7674C7.55411 18.7248 7.81857 18.7639 8.05278 18.8793C8.28699 18.9947 8.4792 19.1805 8.60242 19.4107C8.72565 19.6409 8.7737 19.9039 8.73984 20.1627C8.70411 20.4359 8.57911 20.6897 8.38428 20.8845C8.18945 21.0794 7.93571 21.2044 7.6625 21.2401Z" fill="#3031F2"/>
<path d="M7.6625 14.9901C7.40362 15.0239 7.14063 14.9759 6.91045 14.8527C6.68027 14.7294 6.49445 14.5372 6.37907 14.303C6.2637 14.0688 6.22455 13.8044 6.26714 13.5468C6.30972 13.2892 6.4319 13.0514 6.61652 12.8668C6.80113 12.6821 7.03893 12.56 7.29652 12.5174C7.55411 12.4748 7.81857 12.5139 8.05278 12.6293C8.28699 12.7447 8.4792 12.9305 8.60242 13.1607C8.72565 13.3909 8.7737 13.6539 8.73984 13.9127C8.70411 14.186 8.57911 14.4397 8.38428 14.6345C8.18945 14.8294 7.93571 14.9544 7.6625 14.9901Z" fill="#3031F2"/>
<path d="M7.6625 8.74009C7.40362 8.77395 7.14063 8.72589 6.91045 8.60267C6.68027 8.47944 6.49445 8.28724 6.37907 8.05303C6.2637 7.81881 6.22455 7.55435 6.26714 7.29676C6.30972 7.03917 6.4319 6.80138 6.61652 6.61676C6.80113 6.43214 7.03893 6.30997 7.29652 6.26738C7.55411 6.2248 7.81857 6.26394 8.05278 6.37932C8.28699 6.49469 8.4792 6.68051 8.60242 6.91069C8.72565 7.14087 8.7737 7.40386 8.73984 7.66274C8.70411 7.93595 8.57911 8.1897 8.38428 8.38453C8.18945 8.57936 7.93571 8.70436 7.6625 8.74009Z" fill="#3031F2"/>
<path d="M13.9125 27.4901C13.6536 27.5239 13.3906 27.4759 13.1604 27.3527C12.9303 27.2294 12.7444 27.0372 12.6291 26.803C12.5137 26.5688 12.4746 26.3044 12.5171 26.0468C12.5597 25.7892 12.6819 25.5514 12.8665 25.3668C13.0511 25.1821 13.2889 25.06 13.5465 25.0174C13.8041 24.9748 14.0686 25.0139 14.3028 25.1293C14.537 25.2447 14.7292 25.4305 14.8524 25.6607C14.9756 25.8909 15.0237 26.1539 14.9898 26.4127C14.9541 26.6859 14.8291 26.9397 14.6343 27.1345C14.4395 27.3294 14.1857 27.4544 13.9125 27.4901Z" fill="#3031F2"/>
<path d="M13.9125 21.2401C13.6536 21.2739 13.3906 21.2259 13.1604 21.1027C12.9303 20.9794 12.7444 20.7872 12.6291 20.553C12.5137 20.3188 12.4746 20.0544 12.5171 19.7968C12.5597 19.5392 12.6819 19.3014 12.8665 19.1168C13.0511 18.9321 13.2889 18.81 13.5465 18.7674C13.8041 18.7248 14.0686 18.7639 14.3028 18.8793C14.537 18.9947 14.7292 19.1805 14.8524 19.4107C14.9756 19.6409 15.0237 19.9039 14.9898 20.1627C14.9541 20.4359 14.8291 20.6897 14.6343 20.8845C14.4395 21.0794 14.1857 21.2044 13.9125 21.2401Z" fill="#3031F2"/>
<path d="M13.9125 14.9901C13.6536 15.0239 13.3906 14.9759 13.1604 14.8527C12.9303 14.7294 12.7444 14.5372 12.6291 14.303C12.5137 14.0688 12.4746 13.8044 12.5171 13.5468C12.5597 13.2892 12.6819 13.0514 12.8665 12.8668C13.0511 12.6821 13.2889 12.56 13.5465 12.5174C13.8041 12.4748 14.0686 12.5139 14.3028 12.6293C14.537 12.7447 14.7292 12.9305 14.8524 13.1607C14.9756 13.3909 15.0237 13.6539 14.9898 13.9127C14.9541 14.186 14.8291 14.4397 14.6343 14.6345C14.4395 14.8294 14.1857 14.9544 13.9125 14.9901Z" fill="#3031F2"/>
<path d="M13.9125 8.74009C13.6536 8.77395 13.3906 8.72589 13.1604 8.60267C12.9303 8.47944 12.7444 8.28724 12.6291 8.05303C12.5137 7.81881 12.4746 7.55435 12.5171 7.29676C12.5597 7.03917 12.6819 6.80138 12.8665 6.61676C13.0511 6.43214 13.2889 6.30997 13.5465 6.26738C13.8041 6.2248 14.0686 6.26394 14.3028 6.37932C14.537 6.49469 14.7292 6.68051 14.8524 6.91069C14.9756 7.14087 15.0237 7.40386 14.9898 7.66274C14.9541 7.93595 14.8291 8.1897 14.6343 8.38453C14.4395 8.57936 14.1857 8.70436 13.9125 8.74009Z" fill="#3031F2"/>
<path d="M20.1625 33.7401C19.9036 33.7739 19.6406 33.7259 19.4104 33.6027C19.1803 33.4794 18.9944 33.2872 18.8791 33.053C18.7637 32.8188 18.7246 32.5544 18.7671 32.2968C18.8097 32.0392 18.9319 31.8014 19.1165 31.6168C19.3011 31.4321 19.5389 31.31 19.7965 31.2674C20.0541 31.2248 20.3186 31.2639 20.5528 31.3793C20.787 31.4947 20.9792 31.6805 21.1024 31.9107C21.2256 32.1409 21.2737 32.4039 21.2398 32.6627C21.2041 32.9359 21.0791 33.1897 20.8843 33.3845C20.6895 33.5794 20.4357 33.7044 20.1625 33.7401Z" fill="#3031F2"/>
<path d="M20.1625 27.4901C19.9036 27.5239 19.6406 27.4759 19.4104 27.3527C19.1803 27.2294 18.9944 27.0372 18.8791 26.803C18.7637 26.5688 18.7246 26.3044 18.7671 26.0468C18.8097 25.7892 18.9319 25.5514 19.1165 25.3668C19.3011 25.1821 19.5389 25.06 19.7965 25.0174C20.0541 24.9748 20.3186 25.0139 20.5528 25.1293C20.787 25.2447 20.9792 25.4305 21.1024 25.6607C21.2256 25.8909 21.2737 26.1539 21.2398 26.4127C21.2041 26.6859 21.0791 26.9397 20.8843 27.1345C20.6895 27.3294 20.4357 27.4544 20.1625 27.4901Z" fill="#3031F2"/>
<path d="M20.1625 21.2401C19.9036 21.2739 19.6406 21.2259 19.4104 21.1027C19.1803 20.9794 18.9944 20.7872 18.8791 20.553C18.7637 20.3188 18.7246 20.0544 18.7671 19.7968C18.8097 19.5392 18.9319 19.3014 19.1165 19.1168C19.3011 18.9321 19.5389 18.81 19.7965 18.7674C20.0541 18.7248 20.3186 18.7639 20.5528 18.8793C20.787 18.9947 20.9792 19.1805 21.1024 19.4107C21.2256 19.6409 21.2737 19.9039 21.2398 20.1627C21.2041 20.4359 21.0791 20.6897 20.8843 20.8845C20.6895 21.0794 20.4357 21.2044 20.1625 21.2401Z" fill="#3031F2"/>
<path d="M20.8856 14.6351C21.3722 14.1485 21.3702 13.3575 20.8811 12.8685C20.3921 12.3794 19.6011 12.3774 19.1145 12.864C18.6278 13.3507 18.6298 14.1416 19.1189 14.6307C19.608 15.1198 20.3989 15.1217 20.8856 14.6351Z" fill="#3031F2"/>
<path d="M20.1625 8.74009C19.9036 8.77395 19.6406 8.72589 19.4104 8.60267C19.1803 8.47944 18.9944 8.28724 18.8791 8.05303C18.7637 7.81881 18.7246 7.55435 18.7671 7.29676C18.8097 7.03917 18.9319 6.80138 19.1165 6.61676C19.3011 6.43214 19.5389 6.30997 19.7965 6.26738C20.0541 6.2248 20.3186 6.26394 20.5528 6.37932C20.787 6.49469 20.9792 6.68051 21.1024 6.91069C21.2256 7.14087 21.2737 7.40386 21.2398 7.66274C21.2041 7.93595 21.0791 8.1897 20.8843 8.38453C20.6895 8.57936 20.4357 8.70436 20.1625 8.74009Z" fill="#3031F2"/>
<path d="M31.25 31.2502C31.0028 31.2502 30.7611 31.3236 30.5555 31.4609C30.35 31.5983 30.1898 31.7935 30.0951 32.0219C30.0005 32.2503 29.9758 32.5016 30.024 32.7441C30.0723 32.9866 30.1913 33.2093 30.3661 33.3841C30.5409 33.5589 30.7637 33.678 31.0061 33.7262C31.2486 33.7745 31.4999 33.7497 31.7284 33.6551C31.9568 33.5605 32.152 33.4003 32.2893 33.1947C32.4267 32.9891 32.5 32.7475 32.5 32.5002C32.5 32.1687 32.3683 31.8508 32.1339 31.6164C31.8995 31.3819 31.5815 31.2502 31.25 31.2502Z" fill="#3031F2"/>
<path d="M31.25 25.0002C31.0028 25.0002 30.7611 25.0736 30.5555 25.2109C30.35 25.3483 30.1898 25.5435 30.0951 25.7719C30.0005 26.0003 29.9758 26.2516 30.024 26.4941C30.0723 26.7366 30.1913 26.9593 30.3661 27.1341C30.5409 27.3089 30.7637 27.428 31.0061 27.4762C31.2486 27.5245 31.4999 27.4997 31.7284 27.4051C31.9568 27.3105 32.152 27.1503 32.2893 26.9447C32.4267 26.7391 32.5 26.4975 32.5 26.2502C32.5 25.9187 32.3683 25.6008 32.1339 25.3664C31.8995 25.1319 31.5815 25.0002 31.25 25.0002Z" fill="#3031F2"/>
<path d="M31.25 18.7502C31.0028 18.7502 30.7611 18.8236 30.5555 18.9609C30.35 19.0983 30.1898 19.2935 30.0951 19.5219C30.0005 19.7503 29.9758 20.0016 30.024 20.2441C30.0723 20.4866 30.1913 20.7093 30.3661 20.8841C30.5409 21.0589 30.7637 21.178 31.0061 21.2262C31.2486 21.2745 31.4999 21.2497 31.7284 21.1551C31.9568 21.0605 32.152 20.9003 32.2893 20.6947C32.4267 20.4891 32.5 20.2475 32.5 20.0002C32.5 19.6687 32.3683 19.3508 32.1339 19.1164C31.8995 18.8819 31.5815 18.7502 31.25 18.7502Z" fill="#3031F2"/>
<path d="M26.25 31.2502C26.0028 31.2502 25.7611 31.3236 25.5555 31.4609C25.35 31.5983 25.1898 31.7935 25.0951 32.0219C25.0005 32.2503 24.9758 32.5016 25.024 32.7441C25.0723 32.9866 25.1913 33.2093 25.3661 33.3841C25.5409 33.5589 25.7637 33.678 26.0061 33.7262C26.2486 33.7745 26.4999 33.7497 26.7284 33.6551C26.9568 33.5605 27.152 33.4003 27.2893 33.1947C27.4267 32.9891 27.5 32.7475 27.5 32.5002C27.5 32.1687 27.3683 31.8508 27.1339 31.6164C26.8995 31.3819 26.5815 31.2502 26.25 31.2502Z" fill="#3031F2"/>
<path d="M26.25 25.0002C26.0028 25.0002 25.7611 25.0736 25.5555 25.2109C25.35 25.3483 25.1898 25.5435 25.0951 25.7719C25.0005 26.0003 24.9758 26.2516 25.024 26.4941C25.0723 26.7366 25.1913 26.9593 25.3661 27.1341C25.5409 27.3089 25.7637 27.428 26.0061 27.4762C26.2486 27.5245 26.4999 27.4997 26.7284 27.4051C26.9568 27.3105 27.152 27.1503 27.2893 26.9447C27.4267 26.7391 27.5 26.4975 27.5 26.2502C27.5 25.9187 27.3683 25.6008 27.1339 25.3664C26.8995 25.1319 26.5815 25.0002 26.25 25.0002Z" fill="#3031F2"/>
<path d="M26.25 18.7502C26.0028 18.7502 25.7611 18.8236 25.5555 18.9609C25.35 19.0983 25.1898 19.2935 25.0951 19.5219C25.0005 19.7503 24.9758 20.0016 25.024 20.2441C25.0723 20.4866 25.1913 20.7093 25.3661 20.8841C25.5409 21.0589 25.7637 21.178 26.0061 21.2262C26.2486 21.2745 26.4999 21.2497 26.7284 21.1551C26.9568 21.0605 27.152 20.9003 27.2893 20.6947C27.4267 20.4891 27.5 20.2475 27.5 20.0002C27.5 19.6687 27.3683 19.3508 27.1339 19.1164C26.8995 18.8819 26.5815 18.7502 26.25 18.7502Z" fill="#3031F2"/>
</svg>
