<svg width="24" height="24" viewBox="0 0 24 24" fill="none" xmlns="http://www.w3.org/2000/svg">
<path d="M13.5919 12.0005L18.045 7.54736C18.2564 7.33639 18.3753 7.0501 18.3755 6.75148C18.3758 6.45286 18.2574 6.16636 18.0464 5.95502C17.8355 5.74367 17.5492 5.62479 17.2506 5.62453C16.9519 5.62427 16.6654 5.74264 16.4541 5.95361L12.001 10.4067L7.54785 5.95361C7.33651 5.74227 7.04986 5.62354 6.75098 5.62354C6.45209 5.62354 6.16544 5.74227 5.9541 5.95361C5.74276 6.16496 5.62402 6.4516 5.62402 6.75049C5.62402 7.04937 5.74276 7.33602 5.9541 7.54736L10.4072 12.0005L5.9541 16.4536C5.74276 16.665 5.62402 16.9516 5.62402 17.2505C5.62402 17.5494 5.74276 17.836 5.9541 18.0474C6.16544 18.2587 6.45209 18.3774 6.75098 18.3774C7.04986 18.3774 7.33651 18.2587 7.54785 18.0474L12.001 13.5942L16.4541 18.0474C16.6654 18.2587 16.9521 18.3774 17.251 18.3774C17.5499 18.3774 17.8365 18.2587 18.0478 18.0474C18.2592 17.836 18.3779 17.5494 18.3779 17.2505C18.3779 16.9516 18.2592 16.665 18.0478 16.4536L13.5919 12.0005Z" fill="#E83434"/>
</svg>
