<svg width="26" height="24" viewBox="0 0 26 24" fill="none" xmlns="http://www.w3.org/2000/svg">
<path d="M18.7378 1.72955L14.0745 0.164901C13.42 -0.0549671 12.7195 -0.0549671 12.065 0.164901L7.40179 1.72955C6.46607 2.04145 5.83203 2.92093 5.83203 3.91289C5.83203 5.48265 7.37111 6.59222 8.86417 6.09112L12.7246 4.79748C12.9496 4.72078 13.1951 4.72078 13.42 4.79748L17.2805 6.09112C18.7685 6.59222 20.3127 5.48265 20.3127 3.91289C20.3127 2.92604 19.6786 2.04657 18.7429 1.72955" fill="#F04362"/>
<path d="M22.7671 7.10352C21.4274 7.10352 20.3434 8.18752 20.3434 9.52718V16.6601C20.3434 18.0202 19.2339 19.1758 17.8737 19.1503C16.5545 19.1247 15.4961 18.0509 15.4961 16.7266V11.956C15.4961 10.6163 14.4121 9.53229 13.0724 9.53229C11.7328 9.53229 10.6488 10.6163 10.6488 11.956V16.7266C10.6488 18.0663 9.56476 19.1503 8.22509 19.1503C6.88543 19.1503 5.80143 18.0663 5.80143 16.7266V9.52718C5.80143 8.18752 4.71743 7.10352 3.37776 7.10352C2.0381 7.10352 0.954102 8.18752 0.954102 9.52718V16.2715C0.954102 22.5045 7.96432 26.1656 13.0827 22.6017C18.1959 26.1656 25.2112 22.5045 25.2112 16.2715V9.52718C25.2112 8.18752 24.1272 7.10352 22.7875 7.10352" fill="#3031F2"/>
</svg>
