<svg width="24" height="24" viewBox="0 0 24 24" fill="none" xmlns="http://www.w3.org/2000/svg">
<path fill-rule="evenodd" clip-rule="evenodd" d="M6.99946 2.1833C7.24354 1.93922 7.63927 1.93922 7.88335 2.1833L16.8164 11.1163C16.9325 11.2323 17.0247 11.3701 17.0876 11.5218C17.1505 11.6735 17.1829 11.8361 17.1829 12.0002C17.1829 12.1644 17.1505 12.327 17.0876 12.4787C17.0247 12.6304 16.9325 12.7682 16.8164 12.8842L7.88335 21.8172C7.63927 22.0613 7.24354 22.0613 6.99946 21.8172C6.75539 21.5731 6.75539 21.1774 6.99946 20.9333L15.9325 12.0002L6.99946 3.06719C6.75539 2.82311 6.75539 2.42738 6.99946 2.1833Z" fill="white"/>
</svg>
