<svg width="88" height="88" viewBox="0 0 88 88" fill="none" xmlns="http://www.w3.org/2000/svg">
<path d="M63.1789 0C60.7237 0.00185336 58.3042 0.583567 56.1193 1.69724C53.9344 2.81091 52.0467 4.42473 50.6116 6.40579C49.1765 8.38684 48.2351 10.6785 47.8649 13.0921C47.4946 15.5057 47.7062 17.9723 48.482 20.2888L56.0475 42.6125C56.3596 43.4903 56.3596 44.448 56.0475 45.3259L48.482 67.7112C47.7062 70.0277 47.4946 72.4942 47.8649 74.9078C48.2351 77.3214 49.1765 79.6132 50.6116 81.5942C52.0467 83.5753 53.9344 85.1892 56.1193 86.3028C58.3042 87.4165 60.7237 87.9981 63.1789 88C66.4291 87.9883 69.5941 86.9651 72.2299 85.0739C74.8656 83.1827 76.84 80.5185 77.8759 77.4548L86.9296 50.4443C88.3568 46.2442 88.3568 41.6941 86.9296 37.494L77.8759 10.7302C76.8294 7.67815 74.8507 5.02724 72.2159 3.14775C69.581 1.26827 66.4216 0.00733904 63.1789 0ZM63.1789 2.28177C65.9912 2.29129 68.7298 3.17673 71.01 4.81375C73.2901 6.45077 74.9972 8.75706 75.8914 11.4086L85.0072 38.4191C86.2482 42.2062 86.2482 46.2873 85.0072 50.0743L75.8914 77.0849C75.3295 78.745 74.4444 80.2788 73.2864 81.5987C72.1284 82.9187 70.7203 83.9989 69.1425 84.7777C67.5647 85.5565 65.8481 86.0185 64.0907 86.1376C62.3333 86.2567 60.5695 86.0304 58.9001 85.4716C57.2306 84.9128 55.6883 84.0325 54.361 82.8809C53.0336 81.7293 51.9474 80.3292 51.1642 78.7602C50.3811 77.1911 49.9164 75.4839 49.7967 73.7363C49.677 71.9887 49.9045 70.2348 50.4665 68.5747L58.032 46.2509C58.4808 44.952 58.4808 43.5413 58.032 42.2425L50.4665 19.857C49.7867 17.8518 49.5971 15.7144 49.9135 13.6219C50.2298 11.5293 51.0428 9.54179 52.2853 7.82393C53.5279 6.10608 55.1641 4.70727 57.0585 3.74349C58.9529 2.7797 61.051 2.27866 63.1789 2.28177Z" fill="#F04362"/>
<path d="M15.4294 0C12.9794 0.0115859 10.5672 0.600419 8.39032 1.71822C6.21343 2.83603 4.33396 4.45103 2.90594 6.43072C1.47792 8.41042 0.541932 10.6985 0.17492 13.1073C-0.192091 15.5162 0.0202972 17.9773 0.794515 20.2888L8.29797 42.6125C8.61007 43.4903 8.61007 44.448 8.29797 45.3259L0.794515 67.7112C0.0202972 70.0227 -0.192091 72.4839 0.17492 74.8928C0.541932 77.3016 1.47792 79.5897 2.90594 81.5694C4.33396 83.5491 6.21343 85.164 8.39032 86.2818C10.5672 87.3996 12.9794 87.9884 15.4294 88C18.6818 87.9975 21.8512 86.9779 24.4888 85.0854C27.1264 83.1929 29.0987 80.5235 30.1265 77.4548L39.2423 50.4443C40.608 46.2344 40.608 41.704 39.2423 37.494L30.1265 10.7302C29.0963 7.66801 27.1214 5.00668 24.4829 3.12461C21.8444 1.24253 18.6764 -0.0112037 15.4294 0ZM15.4294 2.28177C18.2416 2.29129 20.9802 3.17673 23.2604 4.81375C25.5406 6.45077 27.2478 8.75706 28.142 11.4086L37.2579 38.4191C38.4989 42.2062 38.4989 46.2873 37.2579 50.0743L28.142 77.0849C27.5801 78.745 26.6949 80.2788 25.5369 81.5987C24.3789 82.9187 22.9707 83.9989 21.3929 84.7777C19.8151 85.5565 18.0985 86.0185 16.3412 86.1376C14.5838 86.2567 12.8199 86.0304 11.1505 85.4716C9.48105 84.9128 7.93873 84.0325 6.6114 82.8809C5.28408 81.7293 4.19778 80.3292 3.41464 78.7602C2.6315 77.1911 2.16687 75.4839 2.04714 73.7363C1.92741 71.9887 2.15498 70.2348 2.71689 68.5747L10.2824 46.2509C10.7313 44.952 10.7313 43.5413 10.2824 42.2425L2.71689 19.857C2.05152 17.852 1.87279 15.7189 2.19513 13.6319C2.51747 11.545 3.3317 9.56349 4.57151 7.84943C5.81132 6.13538 7.4415 4.73731 9.32861 3.76964C11.2157 2.80198 13.3062 2.29218 15.4294 2.28177Z" fill="#F04362"/>
</svg>
