<svg width="20" height="20" viewBox="0 0 20 20" fill="none" xmlns="http://www.w3.org/2000/svg">
<path d="M2.75126 3.638C4.66533 1.65605 7.71659 1.5693 9.73021 3.37774L9.86074 3.49954L9.88166 3.52019C9.94753 3.58541 10.0512 3.58561 10.1173 3.52066L10.17 3.46972C12.1814 1.56693 15.3028 1.62303 17.2487 3.638C19.2504 5.71067 19.2504 9.07114 17.2487 11.1438L11.2081 17.3987C10.5409 18.0896 9.45911 18.0896 8.79188 17.3987L2.75126 11.1438C0.749579 9.07114 0.749579 5.71067 2.75126 3.638ZM3.65735 4.57623C2.1829 6.10297 2.15657 8.56138 3.57837 10.1214L3.65735 10.2056L9.69797 16.4604C9.85286 16.6208 10.0971 16.6323 10.2648 16.4948L10.302 16.4604L16.3426 10.2056C17.8439 8.65108 17.8439 6.13073 16.3426 4.57623C14.8682 3.04948 12.494 3.02222 10.9874 4.49444L10.9061 4.57623L10.1305 5.37928C10.0644 5.44777 9.95738 5.44845 9.89042 5.38082L9.02353 4.50514C7.51534 3.01949 5.13281 3.04845 3.65735 4.57623Z" fill="#F04362"/>
</svg>
