<svg width="20" height="20" viewBox="0 0 20 20" fill="none" xmlns="http://www.w3.org/2000/svg">
<g clip-path="url(#clip0_263_1364)">
<path d="M9.99967 0.833496C15.0623 0.833496 19.1663 4.93755 19.1663 10.0002C19.1663 15.0628 15.0623 19.1668 9.99967 19.1668C4.93706 19.1668 0.833008 15.0628 0.833008 10.0002C0.833008 4.93755 4.93706 0.833496 9.99967 0.833496ZM9.99967 2.0835C5.62742 2.0835 2.08301 5.62791 2.08301 10.0002C2.08301 14.3724 5.62742 17.9168 9.99967 17.9168C14.3719 17.9168 17.9163 14.3724 17.9163 10.0002C17.9163 5.62791 14.3719 2.0835 9.99967 2.0835ZM14.9746 7.36767L9.72598 12.6161C9.48191 12.8601 9.08618 12.8601 8.8421 12.6161L8.81003 12.5819C8.76448 12.5554 8.72156 12.5226 8.68252 12.4836L5.65025 9.45099C5.58517 9.3859 5.58518 9.28037 5.65027 9.21529C5.68152 9.18404 5.72391 9.16648 5.76811 9.16648H7.06424C7.10844 9.16648 7.15083 9.18404 7.18209 9.21529L9.27051 11.3036L13.4424 7.13196C13.4736 7.10071 13.516 7.08315 13.5602 7.08315H14.8567C14.9488 7.08315 15.0234 7.15777 15.0234 7.24981C15.0234 7.29402 15.0058 7.33641 14.9746 7.36767Z" fill="#F04362"/>
</g>
<defs>
<clipPath id="clip0_263_1364">
<rect width="20" height="20" fill="white"/>
</clipPath>
</defs>
</svg>
