<svg width="70" height="24" viewBox="0 0 70 24" fill="none" xmlns="http://www.w3.org/2000/svg">
<path d="M32.733 2.409C32.733 3.738 31.6545 4.81654 30.3255 4.81654C28.9965 4.81654 27.918 3.738 27.918 2.409C27.918 1.08 28.9965 0.00146484 30.3255 0.00146484C31.6545 0.00146484 32.733 1.08 32.733 2.409Z" fill="#3031F2"/>
<path d="M30.3255 7.22412C28.9965 7.22412 27.918 8.30266 27.918 9.63166V21.5927C27.918 22.9217 28.9965 24.0002 30.3255 24.0002C31.6545 24.0002 32.733 22.9217 32.733 21.5927V9.63166C32.733 8.30266 31.6545 7.22412 30.3255 7.22412" fill="#3031F2"/>
<path d="M47.1722 0.00146484C45.8432 0.00146484 44.7646 1.08 44.7646 2.409V21.5926C44.7646 22.9216 45.8432 24.0002 47.1722 24.0002C48.5012 24.0002 49.5797 22.9216 49.5797 21.5926V2.409C49.5797 1.08 48.5063 0.00146484 47.1722 0.00146484Z" fill="#3031F2"/>
<path d="M38.7484 0.00146484C37.4194 0.00146484 36.3408 1.08 36.3408 2.409V21.5926C36.3408 22.9216 37.4194 24.0002 38.7484 24.0002C40.0774 24.0002 41.1559 22.9216 41.1559 21.5926V2.409C41.1559 1.08 40.0774 0.00146484 38.7484 0.00146484Z" fill="#3031F2"/>
<path d="M61.7561 19.0727C59.6297 19.2056 57.8815 17.4574 58.0144 15.331C58.1269 13.5777 59.5479 12.1567 61.296 12.0443C63.4224 11.9114 65.1706 13.6595 65.0377 15.7859C64.9252 17.5392 63.5042 18.9602 61.7509 19.0727M61.6794 7.2241C56.9512 7.1372 53.0971 10.9862 53.1891 15.7144C53.2709 20.1716 56.9103 23.8059 61.3625 23.8877C66.0906 23.9746 69.9396 20.1256 69.8527 15.3975C69.7709 10.9402 66.1315 7.30588 61.6794 7.2241" fill="#3031F2"/>
<path d="M17.9347 1.72898L13.273 0.164847C12.6187 -0.0549491 11.9184 -0.0549491 11.2642 0.164847L6.60245 1.72898C5.66703 2.04078 5.0332 2.91997 5.0332 3.91161C5.0332 5.48085 6.57178 6.59005 8.06435 6.08912L11.9236 4.7959C12.1485 4.71923 12.3938 4.71923 12.6187 4.7959L16.4779 6.08912C17.9654 6.59005 19.5091 5.48085 19.5091 3.91161C19.5091 2.92508 18.8753 2.04589 17.9398 1.72898" fill="#F04362"/>
<path d="M21.9677 7.10107C20.6284 7.10107 19.5448 8.18472 19.5448 9.52394V16.6545C19.5448 18.0142 18.4356 19.1694 17.0759 19.1439C15.7571 19.1183 14.699 18.0449 14.699 16.721V11.9519C14.699 10.6127 13.6154 9.52906 12.2762 9.52906C10.9369 9.52906 9.8533 10.6127 9.8533 11.9519V16.721C9.8533 18.0602 8.76965 19.1439 7.43043 19.1439C6.09121 19.1439 5.00756 18.0602 5.00756 16.721V9.52394C5.00756 8.18472 3.92391 7.10107 2.58469 7.10107C1.24547 7.10107 0.146484 8.18983 0.146484 9.52906V16.2712C0.146484 22.5021 7.15441 26.162 12.2711 22.5993C17.3826 26.162 24.3956 22.5021 24.3956 16.2712V9.52906C24.3956 8.18983 23.312 7.10619 21.9728 7.10619" fill="#3031F2"/>
</svg>
