<svg width="112" height="112" viewBox="0 0 112 112" fill="none" xmlns="http://www.w3.org/2000/svg">
<path d="M80.4096 0.000244141C77.2848 0.00260296 74.2053 0.742966 71.4245 2.16037C68.6437 3.57777 66.2412 5.63172 64.4148 8.15307C62.5883 10.6744 61.3902 13.591 60.9189 16.6629C60.4477 19.7348 60.7169 22.8741 61.7044 25.8223L71.3332 54.2343C71.7304 55.3516 71.7304 56.5705 71.3332 57.6877L61.7044 86.1782C60.7169 89.1264 60.4477 92.2656 60.9189 95.3375C61.3902 98.4093 62.5883 101.326 64.4148 103.847C66.2412 106.369 68.6437 108.423 71.4245 109.84C74.2053 111.258 77.2848 111.998 80.4096 112C84.5462 111.985 88.5743 110.683 91.9289 108.276C95.2835 105.869 97.7963 102.478 99.1147 98.5791L110.638 64.2021C112.454 58.8565 112.454 53.0655 110.638 47.7199L99.1147 13.6569C97.7829 9.77243 95.2646 6.39855 91.9111 4.00648C88.5576 1.6144 84.5365 0.00958474 80.4096 0.000244141ZM80.4096 2.90432C83.9888 2.91643 87.4743 4.04336 90.3763 6.12684C93.2784 8.21031 95.451 11.1456 96.5891 14.5203L108.191 48.8973C109.77 53.7172 109.77 58.9113 108.191 63.7312L96.5891 98.1082C95.8739 100.221 94.7475 102.173 93.2736 103.853C91.7998 105.533 90.0076 106.908 87.9995 107.899C85.9914 108.89 83.8067 109.478 81.57 109.63C79.3333 109.781 77.0884 109.493 74.9637 108.782C72.839 108.071 70.876 106.951 69.1867 105.485C67.4974 104.019 66.1148 102.237 65.1181 100.24C64.1214 98.2435 63.53 96.0707 63.3776 93.8464C63.2252 91.6222 63.5149 89.39 64.23 87.2771L73.8589 58.865C74.4302 57.2119 74.4302 55.4165 73.8589 53.7634L64.23 25.2728C63.3649 22.7207 63.1236 20.0004 63.5262 17.3371C63.9288 14.6739 64.9635 12.1443 66.5449 9.95798C68.1264 7.77162 70.2089 5.99131 72.6199 4.76468C75.031 3.53804 77.7013 2.90036 80.4096 2.90432Z" fill="#F04362"/>
<path d="M19.6374 0.000244141C16.5193 0.0149898 13.4492 0.764414 10.6786 2.18707C7.908 3.60973 5.51595 5.66519 3.69847 8.1848C1.88099 10.7044 0.689731 13.6165 0.222626 16.6823C-0.244479 19.7481 0.0258328 22.8804 1.0112 25.8223L10.5611 54.2343C10.9583 55.3516 10.9583 56.5705 10.5611 57.6877L1.0112 86.1782C0.0258328 89.1201 -0.244479 92.2525 0.222626 95.3183C0.689731 98.3841 1.88099 101.296 3.69847 103.816C5.51595 106.335 7.908 108.391 10.6786 109.813C13.4492 111.236 16.5193 111.985 19.6374 112C23.7769 111.997 27.8107 110.699 31.1676 108.291C34.5245 105.882 37.0347 102.485 38.3428 98.5791L49.9448 64.2021C51.6829 58.844 51.6829 53.078 49.9448 47.7199L38.3428 13.6569C37.0317 9.75953 34.5182 6.37238 31.1601 3.97701C27.802 1.58165 23.77 -0.0140151 19.6374 0.000244141ZM19.6374 2.90432C23.2166 2.91643 26.7021 4.04336 29.6042 6.12684C32.5062 8.21031 34.679 11.1456 35.8171 14.5203L47.4191 48.8973C48.9986 53.7172 48.9986 58.9113 47.4191 63.7312L35.8171 98.1082C35.102 100.221 33.9753 102.173 32.5015 103.853C31.0276 105.533 29.2355 106.908 27.2273 107.899C25.2192 108.89 23.0345 109.478 20.7978 109.63C18.5612 109.781 16.3163 109.493 14.1915 108.782C12.0668 108.071 10.1038 106.951 8.41451 105.485C6.72519 104.019 5.34263 102.237 4.34591 100.24C3.34918 98.2435 2.75784 96.0707 2.60545 93.8464C2.45307 91.6222 2.7427 89.39 3.45786 87.2771L13.0867 58.865C13.658 57.2119 13.658 55.4165 13.0867 53.7634L3.45786 25.2728C2.61103 22.7209 2.38355 20.0061 2.7938 17.35C3.20406 14.6939 4.24034 12.172 5.81828 9.99043C7.39622 7.8089 9.471 6.02955 11.8728 4.79797C14.2746 3.5664 16.9351 2.91756 19.6374 2.90432Z" fill="#F04362"/>
</svg>
