<svg width="88" height="88" viewBox="0 0 88 88" fill="none" xmlns="http://www.w3.org/2000/svg">
<g clip-path="url(#clip0_263_1245)">
<path d="M88.0005 44.0121C88.0005 52.7168 85.4192 61.2261 80.5831 68.4638C75.747 75.7015 68.8733 81.3427 60.8312 84.6738C52.789 88.005 43.9397 88.8765 35.4022 87.1783C26.8647 85.4801 19.0226 81.2884 12.8674 75.1332C6.71219 68.978 2.52047 61.1358 0.822258 52.5984C-0.875952 44.0609 -0.00436458 35.2116 3.3268 27.1694C6.65796 19.1273 12.2991 12.2536 19.5368 7.41748C26.7745 2.58138 35.2838 0.00012207 43.9885 0.00012207C55.6612 0.00012207 66.8558 4.63709 75.1097 12.8909C83.3635 21.1448 88.0005 32.3394 88.0005 44.0121Z" fill="#F04362"/>
<path d="M68.9667 33.7195C68.2339 31.9743 67.1625 30.3915 65.8145 29.0627C63.057 26.3089 59.3235 24.7555 55.4264 24.7404C53.4322 24.7563 51.4694 25.2388 49.6951 26.1493C47.8788 27.0732 46.2572 28.338 44.919 29.8747C44.5428 30.2912 44.192 30.7297 43.8682 31.1881C43.5527 30.73 43.2097 30.2915 42.8414 29.8747C41.5014 28.3397 39.8803 27.0752 38.0652 26.1493C36.2919 25.2363 34.3284 24.7536 32.3339 24.7404C30.3726 24.7479 28.4324 25.1457 26.6264 25.9105C24.8416 26.6351 23.2183 27.7065 21.8503 29.0627C20.5153 30.4023 19.4458 31.9824 18.6981 33.7195C17.9383 35.5346 17.5486 37.4831 17.5518 39.4508C17.5466 41.411 17.9365 43.3521 18.6981 45.1583C19.4408 46.9335 20.51 48.5536 21.8503 49.9344C23.1876 51.2478 41.91 68.1792 43.6772 69.0389C45.4443 68.2747 64.1667 51.3433 65.504 49.9344C66.8708 48.5724 67.9543 46.9532 68.6921 45.1702C69.4299 43.3873 69.8073 41.4759 69.8026 39.5463C69.8057 37.5786 69.7265 35.5346 68.9667 33.7195Z" fill="white"/>
</g>
<defs>
<clipPath id="clip0_263_1245">
<rect width="88" height="88" fill="white"/>
</clipPath>
</defs>
</svg>
