<svg width="12" height="12" viewBox="0 0 12 12" fill="none" xmlns="http://www.w3.org/2000/svg">
<path d="M6 0C2.69062 0 0 2.69062 0 6C0 9.30938 2.69062 12 6 12C9.30938 12 12 9.30938 12 6C12 2.69062 9.30938 0 6 0ZM6 11C3.24375 11 1 8.75625 1 6C1 3.24375 3.24375 1 6 1C8.75625 1 11 3.24375 11 6C11 8.75625 8.75625 11 6 11Z" fill="#4D4D4D"/>
<path d="M7.01568 2.68126C6.76568 2.56251 6.39381 2.49688 6.00006 2.50001C5.43443 2.49063 4.89068 2.68751 4.47506 3.05938C4.09693 3.39688 3.85631 3.84063 3.81256 4.27813C3.78756 4.51876 3.96256 4.73438 4.20318 4.75626C4.44381 4.78126 4.65943 4.60626 4.68131 4.36563C4.72193 3.95001 5.21256 3.35938 5.98756 3.37501H6.00006C6.29068 3.37188 6.52818 3.42188 6.63443 3.47188C7.31256 3.79063 7.31256 4.21876 7.31256 4.35938C7.31256 4.92501 6.97193 5.18125 6.36881 5.58438C5.72193 6.01875 5.40631 6.56563 5.40631 7.25C5.40631 7.49063 5.60318 7.6875 5.84381 7.6875C6.08443 7.6875 6.28131 7.49063 6.28131 7.25C6.28131 6.9625 6.35006 6.65 6.85631 6.3125C7.45006 5.91563 8.18756 5.42188 8.18756 4.36251C8.18756 3.63751 7.77193 3.04063 7.01568 2.68126Z" fill="#4D4D4D"/>
<path d="M5.8125 9.5C6.15768 9.5 6.4375 9.22018 6.4375 8.875C6.4375 8.52982 6.15768 8.25 5.8125 8.25C5.46732 8.25 5.1875 8.52982 5.1875 8.875C5.1875 9.22018 5.46732 9.5 5.8125 9.5Z" fill="#4D4D4D"/>
</svg>
